<mxfile host="65bd71144e">
    <diagram id="FIoSHo_GzcdE-gnDcPzA" name="Page-1">
        <mxGraphModel dx="1850" dy="1558" grid="0" gridSize="10" guides="1" tooltips="1" connect="1" arrows="1" fold="1" page="1" pageScale="1" pageWidth="2000" pageHeight="3000" background="#BFBFBF" math="0" shadow="0">
            <root>
                <mxCell id="0"/>
                <mxCell id="1" parent="0"/>
                <mxCell id="96" value="Assets" style="childLayout=tableLayout;recursiveResize=0;shadow=1;fillColor=#60a917;fontColor=#ffffff;strokeColor=#2D7600;" parent="1" vertex="1">
                    <mxGeometry x="185" y="421" width="414.75" height="328.75" as="geometry"/>
                </mxCell>
                <mxCell id="97" style="shape=tableRow;horizontal=0;startSize=0;swimlaneHead=0;swimlaneBody=0;top=0;left=0;bottom=0;right=0;dropTarget=0;collapsible=0;recursiveResize=0;expand=0;fontStyle=0;strokeColor=inherit;fillColor=#ffffff;" parent="96" vertex="1">
                    <mxGeometry width="414.75" height="39" as="geometry"/>
                </mxCell>
                <mxCell id="98" value="Property" style="connectable=0;recursiveResize=0;align=center;fontStyle=1;html=1;fillColor=#6d8764;fontColor=#ffffff;strokeColor=#3A5431;fontSize=14;" parent="97" vertex="1">
                    <mxGeometry width="111" height="39" as="geometry">
                        <mxRectangle width="111" height="39" as="alternateBounds"/>
                    </mxGeometry>
                </mxCell>
                <mxCell id="99" value="Data Type" style="connectable=0;recursiveResize=0;align=center;fontStyle=1;html=1;fillColor=#6d8764;fontColor=#ffffff;strokeColor=#3A5431;fontSize=14;" parent="97" vertex="1">
                    <mxGeometry x="111" width="110" height="39" as="geometry">
                        <mxRectangle width="110" height="39" as="alternateBounds"/>
                    </mxGeometry>
                </mxCell>
                <mxCell id="100" value="Description" style="connectable=0;recursiveResize=0;align=center;fontStyle=1;html=1;fillColor=#6d8764;fontColor=#ffffff;strokeColor=#3A5431;fontSize=14;" parent="97" vertex="1">
                    <mxGeometry x="221" width="194" height="39" as="geometry">
                        <mxRectangle width="194" height="39" as="alternateBounds"/>
                    </mxGeometry>
                </mxCell>
                <mxCell id="101" value="" style="shape=tableRow;horizontal=0;startSize=0;swimlaneHead=0;swimlaneBody=0;top=0;left=0;bottom=0;right=0;dropTarget=0;collapsible=0;recursiveResize=0;expand=0;fontStyle=0;strokeColor=inherit;fillColor=#ffffff;" parent="96" vertex="1">
                    <mxGeometry y="39" width="414.75" height="41" as="geometry"/>
                </mxCell>
                <mxCell id="102" value="user_id" style="connectable=0;recursiveResize=0;strokeColor=#666666;fillColor=#f5f5f5;align=center;whiteSpace=wrap;html=1;fontColor=#333333;fontSize=13;fontStyle=1" parent="101" vertex="1">
                    <mxGeometry width="111" height="41" as="geometry">
                        <mxRectangle width="111" height="41" as="alternateBounds"/>
                    </mxGeometry>
                </mxCell>
                <mxCell id="103" value="BIGINT" style="connectable=0;recursiveResize=0;strokeColor=#666666;fillColor=#f5f5f5;align=center;whiteSpace=wrap;html=1;fontColor=#333333;" parent="101" vertex="1">
                    <mxGeometry x="111" width="110" height="41" as="geometry">
                        <mxRectangle width="110" height="41" as="alternateBounds"/>
                    </mxGeometry>
                </mxCell>
                <mxCell id="104" value="Primary Key, Auto Increment,&amp;nbsp;ID người dùng" style="connectable=0;recursiveResize=0;strokeColor=#666666;fillColor=#f5f5f5;align=center;whiteSpace=wrap;html=1;fontColor=#333333;" parent="101" vertex="1">
                    <mxGeometry x="221" width="194" height="41" as="geometry">
                        <mxRectangle width="194" height="41" as="alternateBounds"/>
                    </mxGeometry>
                </mxCell>
                <mxCell id="105" value="" style="shape=tableRow;horizontal=0;startSize=0;swimlaneHead=0;swimlaneBody=0;top=0;left=0;bottom=0;right=0;dropTarget=0;collapsible=0;recursiveResize=0;expand=0;fontStyle=1;strokeColor=#666666;fillColor=#f5f5f5;fontColor=#333333;" parent="96" vertex="1">
                    <mxGeometry y="80" width="414.75" height="30" as="geometry"/>
                </mxCell>
                <mxCell id="106" value="username" style="connectable=0;recursiveResize=0;strokeColor=#666666;fillColor=#f5f5f5;whiteSpace=wrap;html=1;fontColor=#333333;fontSize=13;fontStyle=1" parent="105" vertex="1">
                    <mxGeometry width="111" height="30" as="geometry">
                        <mxRectangle width="111" height="30" as="alternateBounds"/>
                    </mxGeometry>
                </mxCell>
                <mxCell id="107" value="VARCHAR(50)" style="connectable=0;recursiveResize=0;strokeColor=#666666;fillColor=#f5f5f5;whiteSpace=wrap;html=1;fontColor=#333333;" parent="105" vertex="1">
                    <mxGeometry x="111" width="110" height="30" as="geometry">
                        <mxRectangle width="110" height="30" as="alternateBounds"/>
                    </mxGeometry>
                </mxCell>
                <mxCell id="108" value="Tên đăng nhập, UNIQUE" style="connectable=0;recursiveResize=0;strokeColor=#666666;fillColor=#f5f5f5;whiteSpace=wrap;html=1;fontColor=#333333;" parent="105" vertex="1">
                    <mxGeometry x="221" width="194" height="30" as="geometry">
                        <mxRectangle width="194" height="30" as="alternateBounds"/>
                    </mxGeometry>
                </mxCell>
                <mxCell id="109" value="" style="shape=tableRow;horizontal=0;startSize=0;swimlaneHead=0;swimlaneBody=0;top=0;left=0;bottom=0;right=0;dropTarget=0;collapsible=0;recursiveResize=0;expand=0;fontStyle=0;strokeColor=#666666;fillColor=#f5f5f5;fontColor=#333333;" parent="96" vertex="1">
                    <mxGeometry y="110" width="414.75" height="33" as="geometry"/>
                </mxCell>
                <mxCell id="110" value="email" style="connectable=0;recursiveResize=0;strokeColor=#666666;fillColor=#f5f5f5;fontStyle=1;align=center;whiteSpace=wrap;html=1;fontColor=#333333;fontSize=13;" parent="109" vertex="1">
                    <mxGeometry width="111" height="33" as="geometry">
                        <mxRectangle width="111" height="33" as="alternateBounds"/>
                    </mxGeometry>
                </mxCell>
                <mxCell id="111" value="VARCHAR(100)" style="connectable=0;recursiveResize=0;strokeColor=#666666;fillColor=#f5f5f5;fontStyle=0;align=center;whiteSpace=wrap;html=1;fontColor=#333333;" parent="109" vertex="1">
                    <mxGeometry x="111" width="110" height="33" as="geometry">
                        <mxRectangle width="110" height="33" as="alternateBounds"/>
                    </mxGeometry>
                </mxCell>
                <mxCell id="112" value="Email đăng ký, UNIQUE" style="connectable=0;recursiveResize=0;strokeColor=#666666;fillColor=#f5f5f5;fontStyle=0;align=center;whiteSpace=wrap;html=1;fontColor=#333333;" parent="109" vertex="1">
                    <mxGeometry x="221" width="194" height="33" as="geometry">
                        <mxRectangle width="194" height="33" as="alternateBounds"/>
                    </mxGeometry>
                </mxCell>
                <mxCell id="113" value="" style="shape=tableRow;horizontal=0;startSize=0;swimlaneHead=0;swimlaneBody=0;top=0;left=0;bottom=0;right=0;dropTarget=0;collapsible=0;recursiveResize=0;expand=0;fontStyle=1;strokeColor=#666666;fillColor=#f5f5f5;fontColor=#333333;" parent="96" vertex="1">
                    <mxGeometry y="143" width="414.75" height="31" as="geometry"/>
                </mxCell>
                <mxCell id="114" value="password" style="connectable=0;recursiveResize=0;strokeColor=#666666;fillColor=#f5f5f5;whiteSpace=wrap;html=1;fontColor=#333333;fontSize=13;fontStyle=1" parent="113" vertex="1">
                    <mxGeometry width="111" height="31" as="geometry">
                        <mxRectangle width="111" height="31" as="alternateBounds"/>
                    </mxGeometry>
                </mxCell>
                <mxCell id="115" value="VARCHAR(255)" style="connectable=0;recursiveResize=0;strokeColor=#666666;fillColor=#f5f5f5;whiteSpace=wrap;html=1;fontColor=#333333;" parent="113" vertex="1">
                    <mxGeometry x="111" width="110" height="31" as="geometry">
                        <mxRectangle width="110" height="31" as="alternateBounds"/>
                    </mxGeometry>
                </mxCell>
                <mxCell id="116" value="Password Hash" style="connectable=0;recursiveResize=0;strokeColor=#666666;fillColor=#f5f5f5;whiteSpace=wrap;html=1;fontColor=#333333;" parent="113" vertex="1">
                    <mxGeometry x="221" width="194" height="31" as="geometry">
                        <mxRectangle width="194" height="31" as="alternateBounds"/>
                    </mxGeometry>
                </mxCell>
                <mxCell id="117" value="" style="shape=tableRow;horizontal=0;startSize=0;swimlaneHead=0;swimlaneBody=0;top=0;left=0;bottom=0;right=0;dropTarget=0;collapsible=0;recursiveResize=0;expand=0;fontStyle=1;strokeColor=#666666;fillColor=#f5f5f5;fontColor=#333333;" parent="96" vertex="1">
                    <mxGeometry y="174" width="414.75" height="31" as="geometry"/>
                </mxCell>
                <mxCell id="118" value="role" style="connectable=0;recursiveResize=0;strokeColor=#666666;fillColor=#f5f5f5;whiteSpace=wrap;html=1;fontColor=#333333;fontSize=13;fontStyle=1" parent="117" vertex="1">
                    <mxGeometry width="111" height="31" as="geometry">
                        <mxRectangle width="111" height="31" as="alternateBounds"/>
                    </mxGeometry>
                </mxCell>
                <mxCell id="119" value="VARCHAR(20)" style="connectable=0;recursiveResize=0;strokeColor=#666666;fillColor=#f5f5f5;whiteSpace=wrap;html=1;fontColor=#333333;" parent="117" vertex="1">
                    <mxGeometry x="111" width="110" height="31" as="geometry">
                        <mxRectangle width="110" height="31" as="alternateBounds"/>
                    </mxGeometry>
                </mxCell>
                <mxCell id="120" value="Vai trò: ADMIN hoặc USER" style="connectable=0;recursiveResize=0;strokeColor=#666666;fillColor=#f5f5f5;whiteSpace=wrap;html=1;fontColor=#333333;" parent="117" vertex="1">
                    <mxGeometry x="221" width="194" height="31" as="geometry">
                        <mxRectangle width="194" height="31" as="alternateBounds"/>
                    </mxGeometry>
                </mxCell>
                <mxCell id="121" style="shape=tableRow;horizontal=0;startSize=0;swimlaneHead=0;swimlaneBody=0;top=0;left=0;bottom=0;right=0;dropTarget=0;collapsible=0;recursiveResize=0;expand=0;fontStyle=1;strokeColor=#666666;fillColor=#f5f5f5;fontColor=#333333;" parent="96" vertex="1">
                    <mxGeometry y="205" width="414.75" height="31" as="geometry"/>
                </mxCell>
                <mxCell id="122" value="profile_image" style="connectable=0;recursiveResize=0;strokeColor=#666666;fillColor=#f5f5f5;whiteSpace=wrap;html=1;fontColor=#333333;fontSize=13;fontStyle=1" parent="121" vertex="1">
                    <mxGeometry width="111" height="31" as="geometry">
                        <mxRectangle width="111" height="31" as="alternateBounds"/>
                    </mxGeometry>
                </mxCell>
                <mxCell id="123" value="VARCHAR(255)" style="connectable=0;recursiveResize=0;strokeColor=#666666;fillColor=#f5f5f5;whiteSpace=wrap;html=1;fontColor=#333333;" parent="121" vertex="1">
                    <mxGeometry x="111" width="110" height="31" as="geometry">
                        <mxRectangle width="110" height="31" as="alternateBounds"/>
                    </mxGeometry>
                </mxCell>
                <mxCell id="124" value="hình đại diện" style="connectable=0;recursiveResize=0;strokeColor=#666666;fillColor=#f5f5f5;whiteSpace=wrap;html=1;fontColor=#333333;" parent="121" vertex="1">
                    <mxGeometry x="221" width="194" height="31" as="geometry">
                        <mxRectangle width="194" height="31" as="alternateBounds"/>
                    </mxGeometry>
                </mxCell>
                <mxCell id="129" style="shape=tableRow;horizontal=0;startSize=0;swimlaneHead=0;swimlaneBody=0;top=0;left=0;bottom=0;right=0;dropTarget=0;collapsible=0;recursiveResize=0;expand=0;fontStyle=1;strokeColor=#666666;fillColor=#f5f5f5;fontColor=#333333;" parent="96" vertex="1">
                    <mxGeometry y="236" width="414.75" height="31" as="geometry"/>
                </mxCell>
                <mxCell id="130" value="is_active" style="connectable=0;recursiveResize=0;strokeColor=#666666;fillColor=#f5f5f5;whiteSpace=wrap;html=1;fontColor=#333333;fontSize=13;fontStyle=1" parent="129" vertex="1">
                    <mxGeometry width="111" height="31" as="geometry">
                        <mxRectangle width="111" height="31" as="alternateBounds"/>
                    </mxGeometry>
                </mxCell>
                <mxCell id="131" value="BOOLEAN" style="connectable=0;recursiveResize=0;strokeColor=#666666;fillColor=#f5f5f5;whiteSpace=wrap;html=1;fontColor=#333333;" parent="129" vertex="1">
                    <mxGeometry x="111" width="110" height="31" as="geometry">
                        <mxRectangle width="110" height="31" as="alternateBounds"/>
                    </mxGeometry>
                </mxCell>
                <mxCell id="132" value="Trạng thái tài khoản" style="connectable=0;recursiveResize=0;strokeColor=#666666;fillColor=#f5f5f5;whiteSpace=wrap;html=1;fontColor=#333333;" parent="129" vertex="1">
                    <mxGeometry x="221" width="194" height="31" as="geometry">
                        <mxRectangle width="194" height="31" as="alternateBounds"/>
                    </mxGeometry>
                </mxCell>
                <mxCell id="133" style="shape=tableRow;horizontal=0;startSize=0;swimlaneHead=0;swimlaneBody=0;top=0;left=0;bottom=0;right=0;dropTarget=0;collapsible=0;recursiveResize=0;expand=0;fontStyle=1;strokeColor=#666666;fillColor=#f5f5f5;fontColor=#333333;" parent="96" vertex="1">
                    <mxGeometry y="267" width="414.75" height="31" as="geometry"/>
                </mxCell>
                <mxCell id="134" value="created_at" style="connectable=0;recursiveResize=0;strokeColor=#666666;fillColor=#f5f5f5;whiteSpace=wrap;html=1;fontColor=#333333;fontSize=13;fontStyle=1" parent="133" vertex="1">
                    <mxGeometry width="111" height="31" as="geometry">
                        <mxRectangle width="111" height="31" as="alternateBounds"/>
                    </mxGeometry>
                </mxCell>
                <mxCell id="135" value="DATETIME" style="connectable=0;recursiveResize=0;strokeColor=#666666;fillColor=#f5f5f5;whiteSpace=wrap;html=1;fontColor=#333333;" parent="133" vertex="1">
                    <mxGeometry x="111" width="110" height="31" as="geometry">
                        <mxRectangle width="110" height="31" as="alternateBounds"/>
                    </mxGeometry>
                </mxCell>
                <mxCell id="136" value="Thời gian tạo tài khoản" style="connectable=0;recursiveResize=0;strokeColor=#666666;fillColor=#f5f5f5;whiteSpace=wrap;html=1;fontColor=#333333;" parent="133" vertex="1">
                    <mxGeometry x="221" width="194" height="31" as="geometry">
                        <mxRectangle width="194" height="31" as="alternateBounds"/>
                    </mxGeometry>
                </mxCell>
                <mxCell id="141" style="shape=tableRow;horizontal=0;startSize=0;swimlaneHead=0;swimlaneBody=0;top=0;left=0;bottom=0;right=0;dropTarget=0;collapsible=0;recursiveResize=0;expand=0;fontStyle=1;strokeColor=#666666;fillColor=#f5f5f5;fontColor=#333333;" parent="96" vertex="1">
                    <mxGeometry y="298" width="414.75" height="31" as="geometry"/>
                </mxCell>
                <mxCell id="142" value="deleted_at" style="connectable=0;recursiveResize=0;strokeColor=#666666;fillColor=#f5f5f5;whiteSpace=wrap;html=1;fontColor=#333333;fontSize=13;fontStyle=1" parent="141" vertex="1">
                    <mxGeometry width="111" height="31" as="geometry">
                        <mxRectangle width="111" height="31" as="alternateBounds"/>
                    </mxGeometry>
                </mxCell>
                <mxCell id="143" value="DATETIME" style="connectable=0;recursiveResize=0;strokeColor=#666666;fillColor=#f5f5f5;whiteSpace=wrap;html=1;fontColor=#333333;" parent="141" vertex="1">
                    <mxGeometry x="111" width="110" height="31" as="geometry">
                        <mxRectangle width="110" height="31" as="alternateBounds"/>
                    </mxGeometry>
                </mxCell>
                <mxCell id="144" value="Thời gian xóa tài khoản" style="connectable=0;recursiveResize=0;strokeColor=#666666;fillColor=#f5f5f5;whiteSpace=wrap;html=1;fontColor=#333333;" parent="141" vertex="1">
                    <mxGeometry x="221" width="194" height="31" as="geometry">
                        <mxRectangle width="194" height="31" as="alternateBounds"/>
                    </mxGeometry>
                </mxCell>
                <mxCell id="126" value="1. Users" style="text;html=1;align=left;verticalAlign=middle;resizable=0;points=[];autosize=1;strokeColor=none;fillColor=none;fontColor=#000000;fontSize=18;fontStyle=1" parent="1" vertex="1">
                    <mxGeometry x="185" y="387" width="88" height="34" as="geometry"/>
                </mxCell>
                <mxCell id="287" value="Assets" style="childLayout=tableLayout;recursiveResize=0;shadow=1;fillColor=#60a917;fontColor=#ffffff;strokeColor=#2D7600;" parent="1" vertex="1">
                    <mxGeometry x="642" y="811" width="414.75" height="426.25" as="geometry"/>
                </mxCell>
                <mxCell id="288" style="shape=tableRow;horizontal=0;startSize=0;swimlaneHead=0;swimlaneBody=0;top=0;left=0;bottom=0;right=0;dropTarget=0;collapsible=0;recursiveResize=0;expand=0;fontStyle=0;strokeColor=inherit;fillColor=#ffffff;" parent="287" vertex="1">
                    <mxGeometry width="414.75" height="39" as="geometry"/>
                </mxCell>
                <mxCell id="289" value="Property" style="connectable=0;recursiveResize=0;align=center;fontStyle=1;html=1;fillColor=#6d8764;fontColor=#ffffff;strokeColor=#3A5431;fontSize=14;" parent="288" vertex="1">
                    <mxGeometry width="111" height="39" as="geometry">
                        <mxRectangle width="111" height="39" as="alternateBounds"/>
                    </mxGeometry>
                </mxCell>
                <mxCell id="290" value="Data Type" style="connectable=0;recursiveResize=0;align=center;fontStyle=1;html=1;fillColor=#6d8764;fontColor=#ffffff;strokeColor=#3A5431;fontSize=14;" parent="288" vertex="1">
                    <mxGeometry x="111" width="110" height="39" as="geometry">
                        <mxRectangle width="110" height="39" as="alternateBounds"/>
                    </mxGeometry>
                </mxCell>
                <mxCell id="291" value="Description" style="connectable=0;recursiveResize=0;align=center;fontStyle=1;html=1;fillColor=#6d8764;fontColor=#ffffff;strokeColor=#3A5431;fontSize=14;" parent="288" vertex="1">
                    <mxGeometry x="221" width="194" height="39" as="geometry">
                        <mxRectangle width="194" height="39" as="alternateBounds"/>
                    </mxGeometry>
                </mxCell>
                <mxCell id="292" value="" style="shape=tableRow;horizontal=0;startSize=0;swimlaneHead=0;swimlaneBody=0;top=0;left=0;bottom=0;right=0;dropTarget=0;collapsible=0;recursiveResize=0;expand=0;fontStyle=0;strokeColor=inherit;fillColor=#ffffff;" parent="287" vertex="1">
                    <mxGeometry y="39" width="414.75" height="30" as="geometry"/>
                </mxCell>
                <mxCell id="293" value="quizz_id" style="connectable=0;recursiveResize=0;strokeColor=#666666;fillColor=#f5f5f5;align=center;whiteSpace=wrap;html=1;fontColor=#333333;fontSize=13;fontStyle=1" parent="292" vertex="1">
                    <mxGeometry width="111" height="30" as="geometry">
                        <mxRectangle width="111" height="30" as="alternateBounds"/>
                    </mxGeometry>
                </mxCell>
                <mxCell id="294" value="BIGINT" style="connectable=0;recursiveResize=0;strokeColor=#666666;fillColor=#f5f5f5;align=center;whiteSpace=wrap;html=1;fontColor=#333333;" parent="292" vertex="1">
                    <mxGeometry x="111" width="110" height="30" as="geometry">
                        <mxRectangle width="110" height="30" as="alternateBounds"/>
                    </mxGeometry>
                </mxCell>
                <mxCell id="295" value="Primary Key, Auto Increment" style="connectable=0;recursiveResize=0;strokeColor=#666666;fillColor=#f5f5f5;align=center;whiteSpace=wrap;html=1;fontColor=#333333;" parent="292" vertex="1">
                    <mxGeometry x="221" width="194" height="30" as="geometry">
                        <mxRectangle width="194" height="30" as="alternateBounds"/>
                    </mxGeometry>
                </mxCell>
                <mxCell id="296" value="" style="shape=tableRow;horizontal=0;startSize=0;swimlaneHead=0;swimlaneBody=0;top=0;left=0;bottom=0;right=0;dropTarget=0;collapsible=0;recursiveResize=0;expand=0;fontStyle=1;strokeColor=#666666;fillColor=#f5f5f5;fontColor=#333333;" parent="287" vertex="1">
                    <mxGeometry y="69" width="414.75" height="30" as="geometry"/>
                </mxCell>
                <mxCell id="297" value="category_id" style="connectable=0;recursiveResize=0;strokeColor=#666666;fillColor=#f5f5f5;whiteSpace=wrap;html=1;fontColor=#333333;fontSize=13;fontStyle=1" parent="296" vertex="1">
                    <mxGeometry width="111" height="30" as="geometry">
                        <mxRectangle width="111" height="30" as="alternateBounds"/>
                    </mxGeometry>
                </mxCell>
                <mxCell id="298" value="BIGINT" style="connectable=0;recursiveResize=0;strokeColor=#666666;fillColor=#f5f5f5;whiteSpace=wrap;html=1;fontColor=#333333;" parent="296" vertex="1">
                    <mxGeometry x="111" width="110" height="30" as="geometry">
                        <mxRectangle width="110" height="30" as="alternateBounds"/>
                    </mxGeometry>
                </mxCell>
                <mxCell id="299" value="FK --&amp;gt; categories.category_id" style="connectable=0;recursiveResize=0;strokeColor=#666666;fillColor=#f5f5f5;whiteSpace=wrap;html=1;fontColor=#333333;" parent="296" vertex="1">
                    <mxGeometry x="221" width="194" height="30" as="geometry">
                        <mxRectangle width="194" height="30" as="alternateBounds"/>
                    </mxGeometry>
                </mxCell>
                <mxCell id="300" value="" style="shape=tableRow;horizontal=0;startSize=0;swimlaneHead=0;swimlaneBody=0;top=0;left=0;bottom=0;right=0;dropTarget=0;collapsible=0;recursiveResize=0;expand=0;fontStyle=0;strokeColor=#666666;fillColor=#f5f5f5;fontColor=#333333;" parent="287" vertex="1">
                    <mxGeometry y="99" width="414.75" height="33" as="geometry"/>
                </mxCell>
                <mxCell id="301" value="title" style="connectable=0;recursiveResize=0;strokeColor=#666666;fillColor=#f5f5f5;fontStyle=1;align=center;whiteSpace=wrap;html=1;fontColor=#333333;fontSize=13;" parent="300" vertex="1">
                    <mxGeometry width="111" height="33" as="geometry">
                        <mxRectangle width="111" height="33" as="alternateBounds"/>
                    </mxGeometry>
                </mxCell>
                <mxCell id="302" value="VARCHAR(255)" style="connectable=0;recursiveResize=0;strokeColor=#666666;fillColor=#f5f5f5;fontStyle=0;align=center;whiteSpace=wrap;html=1;fontColor=#333333;" parent="300" vertex="1">
                    <mxGeometry x="111" width="110" height="33" as="geometry">
                        <mxRectangle width="110" height="33" as="alternateBounds"/>
                    </mxGeometry>
                </mxCell>
                <mxCell id="303" value="Tiêu đề bộ câu hỏi" style="connectable=0;recursiveResize=0;strokeColor=#666666;fillColor=#f5f5f5;fontStyle=0;align=center;whiteSpace=wrap;html=1;fontColor=#333333;" parent="300" vertex="1">
                    <mxGeometry x="221" width="194" height="33" as="geometry">
                        <mxRectangle width="194" height="33" as="alternateBounds"/>
                    </mxGeometry>
                </mxCell>
                <mxCell id="304" value="" style="shape=tableRow;horizontal=0;startSize=0;swimlaneHead=0;swimlaneBody=0;top=0;left=0;bottom=0;right=0;dropTarget=0;collapsible=0;recursiveResize=0;expand=0;fontStyle=1;strokeColor=#666666;fillColor=#f5f5f5;fontColor=#333333;" parent="287" vertex="1">
                    <mxGeometry y="132" width="414.75" height="30" as="geometry"/>
                </mxCell>
                <mxCell id="305" value="description" style="connectable=0;recursiveResize=0;strokeColor=#666666;fillColor=#f5f5f5;whiteSpace=wrap;html=1;fontColor=#333333;fontSize=13;fontStyle=1" parent="304" vertex="1">
                    <mxGeometry width="111" height="30" as="geometry">
                        <mxRectangle width="111" height="30" as="alternateBounds"/>
                    </mxGeometry>
                </mxCell>
                <mxCell id="306" value="TEXT" style="connectable=0;recursiveResize=0;strokeColor=#666666;fillColor=#f5f5f5;whiteSpace=wrap;html=1;fontColor=#333333;" parent="304" vertex="1">
                    <mxGeometry x="111" width="110" height="30" as="geometry">
                        <mxRectangle width="110" height="30" as="alternateBounds"/>
                    </mxGeometry>
                </mxCell>
                <mxCell id="307" value="Mô tả chi tiết" style="connectable=0;recursiveResize=0;strokeColor=#666666;fillColor=#f5f5f5;whiteSpace=wrap;html=1;fontColor=#333333;" parent="304" vertex="1">
                    <mxGeometry x="221" width="194" height="30" as="geometry">
                        <mxRectangle width="194" height="30" as="alternateBounds"/>
                    </mxGeometry>
                </mxCell>
                <mxCell id="308" value="" style="shape=tableRow;horizontal=0;startSize=0;swimlaneHead=0;swimlaneBody=0;top=0;left=0;bottom=0;right=0;dropTarget=0;collapsible=0;recursiveResize=0;expand=0;fontStyle=1;strokeColor=#666666;fillColor=#f5f5f5;fontColor=#333333;" parent="287" vertex="1">
                    <mxGeometry y="162" width="414.75" height="41" as="geometry"/>
                </mxCell>
                <mxCell id="309" value="created_by" style="connectable=0;recursiveResize=0;strokeColor=#666666;fillColor=#f5f5f5;whiteSpace=wrap;html=1;fontColor=#333333;fontSize=13;fontStyle=1" parent="308" vertex="1">
                    <mxGeometry width="111" height="41" as="geometry">
                        <mxRectangle width="111" height="41" as="alternateBounds"/>
                    </mxGeometry>
                </mxCell>
                <mxCell id="310" value="BIGINT" style="connectable=0;recursiveResize=0;strokeColor=#666666;fillColor=#f5f5f5;whiteSpace=wrap;html=1;fontColor=#333333;" parent="308" vertex="1">
                    <mxGeometry x="111" width="110" height="41" as="geometry">
                        <mxRectangle width="110" height="41" as="alternateBounds"/>
                    </mxGeometry>
                </mxCell>
                <mxCell id="311" value="ID người tạo,&lt;br&gt;FK --&amp;gt; users.user_id" style="connectable=0;recursiveResize=0;strokeColor=#666666;fillColor=#f5f5f5;whiteSpace=wrap;html=1;fontColor=#333333;" parent="308" vertex="1">
                    <mxGeometry x="221" width="194" height="41" as="geometry">
                        <mxRectangle width="194" height="41" as="alternateBounds"/>
                    </mxGeometry>
                </mxCell>
                <mxCell id="312" style="shape=tableRow;horizontal=0;startSize=0;swimlaneHead=0;swimlaneBody=0;top=0;left=0;bottom=0;right=0;dropTarget=0;collapsible=0;recursiveResize=0;expand=0;fontStyle=1;strokeColor=#666666;fillColor=#f5f5f5;fontColor=#333333;" parent="287" vertex="1">
                    <mxGeometry y="203" width="414.75" height="31" as="geometry"/>
                </mxCell>
                <mxCell id="313" value="time_limit" style="connectable=0;recursiveResize=0;strokeColor=#666666;fillColor=#f5f5f5;whiteSpace=wrap;html=1;fontColor=#333333;fontSize=13;fontStyle=1" parent="312" vertex="1">
                    <mxGeometry width="111" height="31" as="geometry">
                        <mxRectangle width="111" height="31" as="alternateBounds"/>
                    </mxGeometry>
                </mxCell>
                <mxCell id="314" value="INT" style="connectable=0;recursiveResize=0;strokeColor=#666666;fillColor=#f5f5f5;whiteSpace=wrap;html=1;fontColor=#333333;" parent="312" vertex="1">
                    <mxGeometry x="111" width="110" height="31" as="geometry">
                        <mxRectangle width="110" height="31" as="alternateBounds"/>
                    </mxGeometry>
                </mxCell>
                <mxCell id="315" value="Thời gian làm bài (phút)" style="connectable=0;recursiveResize=0;strokeColor=#666666;fillColor=#f5f5f5;whiteSpace=wrap;html=1;fontColor=#333333;" parent="312" vertex="1">
                    <mxGeometry x="221" width="194" height="31" as="geometry">
                        <mxRectangle width="194" height="31" as="alternateBounds"/>
                    </mxGeometry>
                </mxCell>
                <mxCell id="316" style="shape=tableRow;horizontal=0;startSize=0;swimlaneHead=0;swimlaneBody=0;top=0;left=0;bottom=0;right=0;dropTarget=0;collapsible=0;recursiveResize=0;expand=0;fontStyle=1;strokeColor=#666666;fillColor=#f5f5f5;fontColor=#333333;" parent="287" vertex="1">
                    <mxGeometry y="234" width="414.75" height="31" as="geometry"/>
                </mxCell>
                <mxCell id="317" value="total_score" style="connectable=0;recursiveResize=0;strokeColor=#666666;fillColor=#f5f5f5;whiteSpace=wrap;html=1;fontColor=#333333;fontSize=13;fontStyle=1" parent="316" vertex="1">
                    <mxGeometry width="111" height="31" as="geometry">
                        <mxRectangle width="111" height="31" as="alternateBounds"/>
                    </mxGeometry>
                </mxCell>
                <mxCell id="318" value="INT" style="connectable=0;recursiveResize=0;strokeColor=#666666;fillColor=#f5f5f5;whiteSpace=wrap;html=1;fontColor=#333333;" parent="316" vertex="1">
                    <mxGeometry x="111" width="110" height="31" as="geometry">
                        <mxRectangle width="110" height="31" as="alternateBounds"/>
                    </mxGeometry>
                </mxCell>
                <mxCell id="319" value="Tổng điểm" style="connectable=0;recursiveResize=0;strokeColor=#666666;fillColor=#f5f5f5;whiteSpace=wrap;html=1;fontColor=#333333;" parent="316" vertex="1">
                    <mxGeometry x="221" width="194" height="31" as="geometry">
                        <mxRectangle width="194" height="31" as="alternateBounds"/>
                    </mxGeometry>
                </mxCell>
                <mxCell id="320" style="shape=tableRow;horizontal=0;startSize=0;swimlaneHead=0;swimlaneBody=0;top=0;left=0;bottom=0;right=0;dropTarget=0;collapsible=0;recursiveResize=0;expand=0;fontStyle=1;strokeColor=#666666;fillColor=#f5f5f5;fontColor=#333333;" parent="287" vertex="1">
                    <mxGeometry y="265" width="414.75" height="37" as="geometry"/>
                </mxCell>
                <mxCell id="321" value="status" style="connectable=0;recursiveResize=0;strokeColor=#666666;fillColor=#f5f5f5;whiteSpace=wrap;html=1;fontColor=#333333;fontSize=13;fontStyle=1" parent="320" vertex="1">
                    <mxGeometry width="111" height="37" as="geometry">
                        <mxRectangle width="111" height="37" as="alternateBounds"/>
                    </mxGeometry>
                </mxCell>
                <mxCell id="322" value="VARCHAR(20)" style="connectable=0;recursiveResize=0;strokeColor=#666666;fillColor=#f5f5f5;whiteSpace=wrap;html=1;fontColor=#333333;" parent="320" vertex="1">
                    <mxGeometry x="111" width="110" height="37" as="geometry">
                        <mxRectangle width="110" height="37" as="alternateBounds"/>
                    </mxGeometry>
                </mxCell>
                <mxCell id="323" value="Trạng thái: DRAFT, PUBLISHED, ARCHIVED" style="connectable=0;recursiveResize=0;strokeColor=#666666;fillColor=#f5f5f5;whiteSpace=wrap;html=1;fontColor=#333333;" parent="320" vertex="1">
                    <mxGeometry x="221" width="194" height="37" as="geometry">
                        <mxRectangle width="194" height="37" as="alternateBounds"/>
                    </mxGeometry>
                </mxCell>
                <mxCell id="324" style="shape=tableRow;horizontal=0;startSize=0;swimlaneHead=0;swimlaneBody=0;top=0;left=0;bottom=0;right=0;dropTarget=0;collapsible=0;recursiveResize=0;expand=0;fontStyle=1;strokeColor=#666666;fillColor=#f5f5f5;fontColor=#333333;" parent="287" vertex="1">
                    <mxGeometry y="302" width="414.75" height="31" as="geometry"/>
                </mxCell>
                <mxCell id="325" value="visibility" style="connectable=0;recursiveResize=0;strokeColor=#666666;fillColor=#f5f5f5;whiteSpace=wrap;html=1;fontColor=#333333;fontSize=13;fontStyle=1" parent="324" vertex="1">
                    <mxGeometry width="111" height="31" as="geometry">
                        <mxRectangle width="111" height="31" as="alternateBounds"/>
                    </mxGeometry>
                </mxCell>
                <mxCell id="326" value="VARCHAR(20)" style="connectable=0;recursiveResize=0;strokeColor=#666666;fillColor=#f5f5f5;whiteSpace=wrap;html=1;fontColor=#333333;" parent="324" vertex="1">
                    <mxGeometry x="111" width="110" height="31" as="geometry">
                        <mxRectangle width="110" height="31" as="alternateBounds"/>
                    </mxGeometry>
                </mxCell>
                <mxCell id="327" value="Chế độ hiển thị: PUBLIC,PRIVATE" style="connectable=0;recursiveResize=0;strokeColor=#666666;fillColor=#f5f5f5;whiteSpace=wrap;html=1;fontColor=#333333;" parent="324" vertex="1">
                    <mxGeometry x="221" width="194" height="31" as="geometry">
                        <mxRectangle width="194" height="31" as="alternateBounds"/>
                    </mxGeometry>
                </mxCell>
                <mxCell id="359" style="shape=tableRow;horizontal=0;startSize=0;swimlaneHead=0;swimlaneBody=0;top=0;left=0;bottom=0;right=0;dropTarget=0;collapsible=0;recursiveResize=0;expand=0;fontStyle=1;strokeColor=#666666;fillColor=#f5f5f5;fontColor=#333333;" parent="287" vertex="1">
                    <mxGeometry y="333" width="414.75" height="31" as="geometry"/>
                </mxCell>
                <mxCell id="360" value="created_at" style="connectable=0;recursiveResize=0;strokeColor=#666666;fillColor=#f5f5f5;whiteSpace=wrap;html=1;fontColor=#333333;fontSize=13;fontStyle=1" parent="359" vertex="1">
                    <mxGeometry width="111" height="31" as="geometry">
                        <mxRectangle width="111" height="31" as="alternateBounds"/>
                    </mxGeometry>
                </mxCell>
                <mxCell id="361" value="DATETIME" style="connectable=0;recursiveResize=0;strokeColor=#666666;fillColor=#f5f5f5;whiteSpace=wrap;html=1;fontColor=#333333;" parent="359" vertex="1">
                    <mxGeometry x="111" width="110" height="31" as="geometry">
                        <mxRectangle width="110" height="31" as="alternateBounds"/>
                    </mxGeometry>
                </mxCell>
                <mxCell id="362" value="Thời gian tạo" style="connectable=0;recursiveResize=0;strokeColor=#666666;fillColor=#f5f5f5;whiteSpace=wrap;html=1;fontColor=#333333;" parent="359" vertex="1">
                    <mxGeometry x="221" width="194" height="31" as="geometry">
                        <mxRectangle width="194" height="31" as="alternateBounds"/>
                    </mxGeometry>
                </mxCell>
                <mxCell id="363" style="shape=tableRow;horizontal=0;startSize=0;swimlaneHead=0;swimlaneBody=0;top=0;left=0;bottom=0;right=0;dropTarget=0;collapsible=0;recursiveResize=0;expand=0;fontStyle=1;strokeColor=#666666;fillColor=#f5f5f5;fontColor=#333333;" parent="287" vertex="1">
                    <mxGeometry y="364" width="414.75" height="31" as="geometry"/>
                </mxCell>
                <mxCell id="364" value="updated_at" style="connectable=0;recursiveResize=0;strokeColor=#666666;fillColor=#f5f5f5;whiteSpace=wrap;html=1;fontColor=#333333;fontSize=13;fontStyle=1" parent="363" vertex="1">
                    <mxGeometry width="111" height="31" as="geometry">
                        <mxRectangle width="111" height="31" as="alternateBounds"/>
                    </mxGeometry>
                </mxCell>
                <mxCell id="365" value="DATETIME" style="connectable=0;recursiveResize=0;strokeColor=#666666;fillColor=#f5f5f5;whiteSpace=wrap;html=1;fontColor=#333333;" parent="363" vertex="1">
                    <mxGeometry x="111" width="110" height="31" as="geometry">
                        <mxRectangle width="110" height="31" as="alternateBounds"/>
                    </mxGeometry>
                </mxCell>
                <mxCell id="366" value="Thời gian cập nhật" style="connectable=0;recursiveResize=0;strokeColor=#666666;fillColor=#f5f5f5;whiteSpace=wrap;html=1;fontColor=#333333;" parent="363" vertex="1">
                    <mxGeometry x="221" width="194" height="31" as="geometry">
                        <mxRectangle width="194" height="31" as="alternateBounds"/>
                    </mxGeometry>
                </mxCell>
                <mxCell id="367" style="shape=tableRow;horizontal=0;startSize=0;swimlaneHead=0;swimlaneBody=0;top=0;left=0;bottom=0;right=0;dropTarget=0;collapsible=0;recursiveResize=0;expand=0;fontStyle=1;strokeColor=#666666;fillColor=#f5f5f5;fontColor=#333333;" parent="287" vertex="1">
                    <mxGeometry y="395" width="414.75" height="31" as="geometry"/>
                </mxCell>
                <mxCell id="368" value="deleted_at" style="connectable=0;recursiveResize=0;strokeColor=#666666;fillColor=#f5f5f5;whiteSpace=wrap;html=1;fontColor=#333333;fontSize=13;fontStyle=1" parent="367" vertex="1">
                    <mxGeometry width="111" height="31" as="geometry">
                        <mxRectangle width="111" height="31" as="alternateBounds"/>
                    </mxGeometry>
                </mxCell>
                <mxCell id="369" value="DATETIME" style="connectable=0;recursiveResize=0;strokeColor=#666666;fillColor=#f5f5f5;whiteSpace=wrap;html=1;fontColor=#333333;" parent="367" vertex="1">
                    <mxGeometry x="111" width="110" height="31" as="geometry">
                        <mxRectangle width="110" height="31" as="alternateBounds"/>
                    </mxGeometry>
                </mxCell>
                <mxCell id="370" value="Thời gian xóa" style="connectable=0;recursiveResize=0;strokeColor=#666666;fillColor=#f5f5f5;whiteSpace=wrap;html=1;fontColor=#333333;" parent="367" vertex="1">
                    <mxGeometry x="221" width="194" height="31" as="geometry">
                        <mxRectangle width="194" height="31" as="alternateBounds"/>
                    </mxGeometry>
                </mxCell>
                <mxCell id="328" value="5. Quizzes (bộ câu hỏi)" style="text;html=1;align=left;verticalAlign=middle;resizable=0;points=[];autosize=1;strokeColor=none;fillColor=none;fontColor=#000000;fontSize=18;fontStyle=1" parent="1" vertex="1">
                    <mxGeometry x="642" y="777" width="213" height="34" as="geometry"/>
                </mxCell>
                <mxCell id="329" value="Assets" style="childLayout=tableLayout;recursiveResize=0;shadow=1;fillColor=#60a917;fontColor=#ffffff;strokeColor=#2D7600;" parent="1" vertex="1">
                    <mxGeometry x="188" y="811" width="414.75" height="227" as="geometry"/>
                </mxCell>
                <mxCell id="330" style="shape=tableRow;horizontal=0;startSize=0;swimlaneHead=0;swimlaneBody=0;top=0;left=0;bottom=0;right=0;dropTarget=0;collapsible=0;recursiveResize=0;expand=0;fontStyle=0;strokeColor=inherit;fillColor=#ffffff;" parent="329" vertex="1">
                    <mxGeometry width="414.75" height="39" as="geometry"/>
                </mxCell>
                <mxCell id="331" value="Property" style="connectable=0;recursiveResize=0;align=center;fontStyle=1;html=1;fillColor=#6d8764;fontColor=#ffffff;strokeColor=#3A5431;fontSize=14;" parent="330" vertex="1">
                    <mxGeometry width="111" height="39" as="geometry">
                        <mxRectangle width="111" height="39" as="alternateBounds"/>
                    </mxGeometry>
                </mxCell>
                <mxCell id="332" value="Data Type" style="connectable=0;recursiveResize=0;align=center;fontStyle=1;html=1;fillColor=#6d8764;fontColor=#ffffff;strokeColor=#3A5431;fontSize=14;" parent="330" vertex="1">
                    <mxGeometry x="111" width="110" height="39" as="geometry">
                        <mxRectangle width="110" height="39" as="alternateBounds"/>
                    </mxGeometry>
                </mxCell>
                <mxCell id="333" value="Description" style="connectable=0;recursiveResize=0;align=center;fontStyle=1;html=1;fillColor=#6d8764;fontColor=#ffffff;strokeColor=#3A5431;fontSize=14;" parent="330" vertex="1">
                    <mxGeometry x="221" width="194" height="39" as="geometry">
                        <mxRectangle width="194" height="39" as="alternateBounds"/>
                    </mxGeometry>
                </mxCell>
                <mxCell id="334" value="" style="shape=tableRow;horizontal=0;startSize=0;swimlaneHead=0;swimlaneBody=0;top=0;left=0;bottom=0;right=0;dropTarget=0;collapsible=0;recursiveResize=0;expand=0;fontStyle=0;strokeColor=inherit;fillColor=#ffffff;" parent="329" vertex="1">
                    <mxGeometry y="39" width="414.75" height="32" as="geometry"/>
                </mxCell>
                <mxCell id="335" value="category_id" style="connectable=0;recursiveResize=0;strokeColor=#666666;fillColor=#f5f5f5;align=center;whiteSpace=wrap;html=1;fontColor=#333333;fontSize=13;fontStyle=1" parent="334" vertex="1">
                    <mxGeometry width="111" height="32" as="geometry">
                        <mxRectangle width="111" height="32" as="alternateBounds"/>
                    </mxGeometry>
                </mxCell>
                <mxCell id="336" value="BIGINT" style="connectable=0;recursiveResize=0;strokeColor=#666666;fillColor=#f5f5f5;align=center;whiteSpace=wrap;html=1;fontColor=#333333;" parent="334" vertex="1">
                    <mxGeometry x="111" width="110" height="32" as="geometry">
                        <mxRectangle width="110" height="32" as="alternateBounds"/>
                    </mxGeometry>
                </mxCell>
                <mxCell id="337" value="Primary Key, Auto Increment" style="connectable=0;recursiveResize=0;strokeColor=#666666;fillColor=#f5f5f5;align=center;whiteSpace=wrap;html=1;fontColor=#333333;" parent="334" vertex="1">
                    <mxGeometry x="221" width="194" height="32" as="geometry">
                        <mxRectangle width="194" height="32" as="alternateBounds"/>
                    </mxGeometry>
                </mxCell>
                <mxCell id="338" value="" style="shape=tableRow;horizontal=0;startSize=0;swimlaneHead=0;swimlaneBody=0;top=0;left=0;bottom=0;right=0;dropTarget=0;collapsible=0;recursiveResize=0;expand=0;fontStyle=1;strokeColor=#666666;fillColor=#f5f5f5;fontColor=#333333;" parent="329" vertex="1">
                    <mxGeometry y="71" width="414.75" height="30" as="geometry"/>
                </mxCell>
                <mxCell id="339" value="name" style="connectable=0;recursiveResize=0;strokeColor=#666666;fillColor=#f5f5f5;whiteSpace=wrap;html=1;fontColor=#333333;fontSize=13;fontStyle=1;align=center;" parent="338" vertex="1">
                    <mxGeometry width="111" height="30" as="geometry">
                        <mxRectangle width="111" height="30" as="alternateBounds"/>
                    </mxGeometry>
                </mxCell>
                <mxCell id="340" value="VARCHAR(100)" style="connectable=0;recursiveResize=0;strokeColor=#666666;fillColor=#f5f5f5;whiteSpace=wrap;html=1;fontColor=#333333;align=center;" parent="338" vertex="1">
                    <mxGeometry x="111" width="110" height="30" as="geometry">
                        <mxRectangle width="110" height="30" as="alternateBounds"/>
                    </mxGeometry>
                </mxCell>
                <mxCell id="341" value="Tên danh mục" style="connectable=0;recursiveResize=0;strokeColor=#666666;fillColor=#f5f5f5;whiteSpace=wrap;html=1;fontColor=#333333;" parent="338" vertex="1">
                    <mxGeometry x="221" width="194" height="30" as="geometry">
                        <mxRectangle width="194" height="30" as="alternateBounds"/>
                    </mxGeometry>
                </mxCell>
                <mxCell id="342" value="" style="shape=tableRow;horizontal=0;startSize=0;swimlaneHead=0;swimlaneBody=0;top=0;left=0;bottom=0;right=0;dropTarget=0;collapsible=0;recursiveResize=0;expand=0;fontStyle=0;strokeColor=#666666;fillColor=#f5f5f5;fontColor=#333333;" parent="329" vertex="1">
                    <mxGeometry y="101" width="414.75" height="33" as="geometry"/>
                </mxCell>
                <mxCell id="343" value="description" style="connectable=0;recursiveResize=0;strokeColor=#666666;fillColor=#f5f5f5;fontStyle=1;align=center;whiteSpace=wrap;html=1;fontColor=#333333;fontSize=13;" parent="342" vertex="1">
                    <mxGeometry width="111" height="33" as="geometry">
                        <mxRectangle width="111" height="33" as="alternateBounds"/>
                    </mxGeometry>
                </mxCell>
                <mxCell id="344" value="TEXT" style="connectable=0;recursiveResize=0;strokeColor=#666666;fillColor=#f5f5f5;fontStyle=0;align=center;whiteSpace=wrap;html=1;fontColor=#333333;" parent="342" vertex="1">
                    <mxGeometry x="111" width="110" height="33" as="geometry">
                        <mxRectangle width="110" height="33" as="alternateBounds"/>
                    </mxGeometry>
                </mxCell>
                <mxCell id="345" value="Mô tả chi tiết" style="connectable=0;recursiveResize=0;strokeColor=#666666;fillColor=#f5f5f5;fontStyle=0;align=center;whiteSpace=wrap;html=1;fontColor=#333333;" parent="342" vertex="1">
                    <mxGeometry x="221" width="194" height="33" as="geometry">
                        <mxRectangle width="194" height="33" as="alternateBounds"/>
                    </mxGeometry>
                </mxCell>
                <mxCell id="346" value="" style="shape=tableRow;horizontal=0;startSize=0;swimlaneHead=0;swimlaneBody=0;top=0;left=0;bottom=0;right=0;dropTarget=0;collapsible=0;recursiveResize=0;expand=0;fontStyle=1;strokeColor=#666666;fillColor=#f5f5f5;fontColor=#333333;" parent="329" vertex="1">
                    <mxGeometry y="134" width="414.75" height="31" as="geometry"/>
                </mxCell>
                <mxCell id="347" value="created_at" style="connectable=0;recursiveResize=0;strokeColor=#666666;fillColor=#f5f5f5;whiteSpace=wrap;html=1;fontColor=#333333;fontSize=13;fontStyle=1;align=center;" parent="346" vertex="1">
                    <mxGeometry width="111" height="31" as="geometry">
                        <mxRectangle width="111" height="31" as="alternateBounds"/>
                    </mxGeometry>
                </mxCell>
                <mxCell id="348" value="DATETIME" style="connectable=0;recursiveResize=0;strokeColor=#666666;fillColor=#f5f5f5;whiteSpace=wrap;html=1;fontColor=#333333;align=center;" parent="346" vertex="1">
                    <mxGeometry x="111" width="110" height="31" as="geometry">
                        <mxRectangle width="110" height="31" as="alternateBounds"/>
                    </mxGeometry>
                </mxCell>
                <mxCell id="349" value="Thời gian tạo danh mục" style="connectable=0;recursiveResize=0;strokeColor=#666666;fillColor=#f5f5f5;whiteSpace=wrap;html=1;fontColor=#333333;" parent="346" vertex="1">
                    <mxGeometry x="221" width="194" height="31" as="geometry">
                        <mxRectangle width="194" height="31" as="alternateBounds"/>
                    </mxGeometry>
                </mxCell>
                <mxCell id="350" value="" style="shape=tableRow;horizontal=0;startSize=0;swimlaneHead=0;swimlaneBody=0;top=0;left=0;bottom=0;right=0;dropTarget=0;collapsible=0;recursiveResize=0;expand=0;fontStyle=1;strokeColor=#666666;fillColor=#f5f5f5;fontColor=#333333;" parent="329" vertex="1">
                    <mxGeometry y="165" width="414.75" height="31" as="geometry"/>
                </mxCell>
                <mxCell id="351" value="updated_at" style="connectable=0;recursiveResize=0;strokeColor=#666666;fillColor=#f5f5f5;whiteSpace=wrap;html=1;fontColor=#333333;fontSize=13;fontStyle=1;align=center;" parent="350" vertex="1">
                    <mxGeometry width="111" height="31" as="geometry">
                        <mxRectangle width="111" height="31" as="alternateBounds"/>
                    </mxGeometry>
                </mxCell>
                <mxCell id="352" value="DATETIME" style="connectable=0;recursiveResize=0;strokeColor=#666666;fillColor=#f5f5f5;whiteSpace=wrap;html=1;fontColor=#333333;align=center;" parent="350" vertex="1">
                    <mxGeometry x="111" width="110" height="31" as="geometry">
                        <mxRectangle width="110" height="31" as="alternateBounds"/>
                    </mxGeometry>
                </mxCell>
                <mxCell id="353" value="Thời gian cập nhật gần nhất" style="connectable=0;recursiveResize=0;strokeColor=#666666;fillColor=#f5f5f5;whiteSpace=wrap;html=1;fontColor=#333333;" parent="350" vertex="1">
                    <mxGeometry x="221" width="194" height="31" as="geometry">
                        <mxRectangle width="194" height="31" as="alternateBounds"/>
                    </mxGeometry>
                </mxCell>
                <mxCell id="354" style="shape=tableRow;horizontal=0;startSize=0;swimlaneHead=0;swimlaneBody=0;top=0;left=0;bottom=0;right=0;dropTarget=0;collapsible=0;recursiveResize=0;expand=0;fontStyle=1;strokeColor=#666666;fillColor=#f5f5f5;fontColor=#333333;" parent="329" vertex="1">
                    <mxGeometry y="196" width="414.75" height="31" as="geometry"/>
                </mxCell>
                <mxCell id="355" value="deleted_at" style="connectable=0;recursiveResize=0;strokeColor=#666666;fillColor=#f5f5f5;whiteSpace=wrap;html=1;fontColor=#333333;fontSize=13;fontStyle=1;align=center;" parent="354" vertex="1">
                    <mxGeometry width="111" height="31" as="geometry">
                        <mxRectangle width="111" height="31" as="alternateBounds"/>
                    </mxGeometry>
                </mxCell>
                <mxCell id="356" value="DATETIME" style="connectable=0;recursiveResize=0;strokeColor=#666666;fillColor=#f5f5f5;whiteSpace=wrap;html=1;fontColor=#333333;align=center;" parent="354" vertex="1">
                    <mxGeometry x="111" width="110" height="31" as="geometry">
                        <mxRectangle width="110" height="31" as="alternateBounds"/>
                    </mxGeometry>
                </mxCell>
                <mxCell id="357" value="Thời gian xóa" style="connectable=0;recursiveResize=0;strokeColor=#666666;fillColor=#f5f5f5;whiteSpace=wrap;html=1;fontColor=#333333;" parent="354" vertex="1">
                    <mxGeometry x="221" width="194" height="31" as="geometry">
                        <mxRectangle width="194" height="31" as="alternateBounds"/>
                    </mxGeometry>
                </mxCell>
                <mxCell id="358" value="4.Categories" style="text;html=1;align=left;verticalAlign=middle;resizable=0;points=[];autosize=1;strokeColor=none;fillColor=none;fontColor=#000000;fontSize=18;fontStyle=1" parent="1" vertex="1">
                    <mxGeometry x="188" y="777" width="126" height="34" as="geometry"/>
                </mxCell>
                <mxCell id="432" value="Assets" style="childLayout=tableLayout;recursiveResize=0;shadow=1;fillColor=#60a917;fontColor=#ffffff;strokeColor=#2D7600;" parent="1" vertex="1">
                    <mxGeometry x="1110.5" y="811" width="414.75" height="304.25" as="geometry"/>
                </mxCell>
                <mxCell id="433" style="shape=tableRow;horizontal=0;startSize=0;swimlaneHead=0;swimlaneBody=0;top=0;left=0;bottom=0;right=0;dropTarget=0;collapsible=0;recursiveResize=0;expand=0;fontStyle=0;strokeColor=inherit;fillColor=#ffffff;" parent="432" vertex="1">
                    <mxGeometry width="414.75" height="39" as="geometry"/>
                </mxCell>
                <mxCell id="434" value="Property" style="connectable=0;recursiveResize=0;align=center;fontStyle=1;html=1;fillColor=#6d8764;fontColor=#ffffff;strokeColor=#3A5431;fontSize=14;" parent="433" vertex="1">
                    <mxGeometry width="111" height="39" as="geometry">
                        <mxRectangle width="111" height="39" as="alternateBounds"/>
                    </mxGeometry>
                </mxCell>
                <mxCell id="435" value="Data Type" style="connectable=0;recursiveResize=0;align=center;fontStyle=1;html=1;fillColor=#6d8764;fontColor=#ffffff;strokeColor=#3A5431;fontSize=14;" parent="433" vertex="1">
                    <mxGeometry x="111" width="110" height="39" as="geometry">
                        <mxRectangle width="110" height="39" as="alternateBounds"/>
                    </mxGeometry>
                </mxCell>
                <mxCell id="436" value="Description" style="connectable=0;recursiveResize=0;align=center;fontStyle=1;html=1;fillColor=#6d8764;fontColor=#ffffff;strokeColor=#3A5431;fontSize=14;" parent="433" vertex="1">
                    <mxGeometry x="221" width="194" height="39" as="geometry">
                        <mxRectangle width="194" height="39" as="alternateBounds"/>
                    </mxGeometry>
                </mxCell>
                <mxCell id="437" value="" style="shape=tableRow;horizontal=0;startSize=0;swimlaneHead=0;swimlaneBody=0;top=0;left=0;bottom=0;right=0;dropTarget=0;collapsible=0;recursiveResize=0;expand=0;fontStyle=0;strokeColor=inherit;fillColor=#ffffff;" parent="432" vertex="1">
                    <mxGeometry y="39" width="414.75" height="37" as="geometry"/>
                </mxCell>
                <mxCell id="438" value="question_id" style="connectable=0;recursiveResize=0;strokeColor=#666666;fillColor=#f5f5f5;align=center;whiteSpace=wrap;html=1;fontColor=#333333;fontSize=13;fontStyle=1" parent="437" vertex="1">
                    <mxGeometry width="111" height="37" as="geometry">
                        <mxRectangle width="111" height="37" as="alternateBounds"/>
                    </mxGeometry>
                </mxCell>
                <mxCell id="439" value="BIGINT" style="connectable=0;recursiveResize=0;strokeColor=#666666;fillColor=#f5f5f5;align=center;whiteSpace=wrap;html=1;fontColor=#333333;" parent="437" vertex="1">
                    <mxGeometry x="111" width="110" height="37" as="geometry">
                        <mxRectangle width="110" height="37" as="alternateBounds"/>
                    </mxGeometry>
                </mxCell>
                <mxCell id="440" value="Primary Key, Auto Increment" style="connectable=0;recursiveResize=0;strokeColor=#666666;fillColor=#f5f5f5;align=center;whiteSpace=wrap;html=1;fontColor=#333333;" parent="437" vertex="1">
                    <mxGeometry x="221" width="194" height="37" as="geometry">
                        <mxRectangle width="194" height="37" as="alternateBounds"/>
                    </mxGeometry>
                </mxCell>
                <mxCell id="441" value="" style="shape=tableRow;horizontal=0;startSize=0;swimlaneHead=0;swimlaneBody=0;top=0;left=0;bottom=0;right=0;dropTarget=0;collapsible=0;recursiveResize=0;expand=0;fontStyle=1;strokeColor=#666666;fillColor=#f5f5f5;fontColor=#333333;" parent="432" vertex="1">
                    <mxGeometry y="76" width="414.75" height="30" as="geometry"/>
                </mxCell>
                <mxCell id="442" value="quizz_id" style="connectable=0;recursiveResize=0;strokeColor=#666666;fillColor=#f5f5f5;whiteSpace=wrap;html=1;fontColor=#333333;fontSize=13;fontStyle=1" parent="441" vertex="1">
                    <mxGeometry width="111" height="30" as="geometry">
                        <mxRectangle width="111" height="30" as="alternateBounds"/>
                    </mxGeometry>
                </mxCell>
                <mxCell id="443" value="BIGINT" style="connectable=0;recursiveResize=0;strokeColor=#666666;fillColor=#f5f5f5;whiteSpace=wrap;html=1;fontColor=#333333;" parent="441" vertex="1">
                    <mxGeometry x="111" width="110" height="30" as="geometry">
                        <mxRectangle width="110" height="30" as="alternateBounds"/>
                    </mxGeometry>
                </mxCell>
                <mxCell id="444" value="FK --&amp;gt; quizzes.quizz_id" style="connectable=0;recursiveResize=0;strokeColor=#666666;fillColor=#f5f5f5;whiteSpace=wrap;html=1;fontColor=#333333;" parent="441" vertex="1">
                    <mxGeometry x="221" width="194" height="30" as="geometry">
                        <mxRectangle width="194" height="30" as="alternateBounds"/>
                    </mxGeometry>
                </mxCell>
                <mxCell id="445" value="" style="shape=tableRow;horizontal=0;startSize=0;swimlaneHead=0;swimlaneBody=0;top=0;left=0;bottom=0;right=0;dropTarget=0;collapsible=0;recursiveResize=0;expand=0;fontStyle=0;strokeColor=#666666;fillColor=#f5f5f5;fontColor=#333333;" parent="432" vertex="1">
                    <mxGeometry y="106" width="414.75" height="33" as="geometry"/>
                </mxCell>
                <mxCell id="446" value="question_text" style="connectable=0;recursiveResize=0;strokeColor=#666666;fillColor=#f5f5f5;fontStyle=1;align=center;whiteSpace=wrap;html=1;fontColor=#333333;fontSize=13;" parent="445" vertex="1">
                    <mxGeometry width="111" height="33" as="geometry">
                        <mxRectangle width="111" height="33" as="alternateBounds"/>
                    </mxGeometry>
                </mxCell>
                <mxCell id="447" value="TEXT" style="connectable=0;recursiveResize=0;strokeColor=#666666;fillColor=#f5f5f5;fontStyle=0;align=center;whiteSpace=wrap;html=1;fontColor=#333333;" parent="445" vertex="1">
                    <mxGeometry x="111" width="110" height="33" as="geometry">
                        <mxRectangle width="110" height="33" as="alternateBounds"/>
                    </mxGeometry>
                </mxCell>
                <mxCell id="448" value="Nội dung câu hỏi" style="connectable=0;recursiveResize=0;strokeColor=#666666;fillColor=#f5f5f5;fontStyle=0;align=center;whiteSpace=wrap;html=1;fontColor=#333333;" parent="445" vertex="1">
                    <mxGeometry x="221" width="194" height="33" as="geometry">
                        <mxRectangle width="194" height="33" as="alternateBounds"/>
                    </mxGeometry>
                </mxCell>
                <mxCell id="449" value="" style="shape=tableRow;horizontal=0;startSize=0;swimlaneHead=0;swimlaneBody=0;top=0;left=0;bottom=0;right=0;dropTarget=0;collapsible=0;recursiveResize=0;expand=0;fontStyle=1;strokeColor=#666666;fillColor=#f5f5f5;fontColor=#333333;" parent="432" vertex="1">
                    <mxGeometry y="139" width="414.75" height="41" as="geometry"/>
                </mxCell>
                <mxCell id="450" value="question_type" style="connectable=0;recursiveResize=0;strokeColor=#666666;fillColor=#f5f5f5;whiteSpace=wrap;html=1;fontColor=#333333;fontSize=13;fontStyle=1" parent="449" vertex="1">
                    <mxGeometry width="111" height="41" as="geometry">
                        <mxRectangle width="111" height="41" as="alternateBounds"/>
                    </mxGeometry>
                </mxCell>
                <mxCell id="451" value="VARCHAR(20)" style="connectable=0;recursiveResize=0;strokeColor=#666666;fillColor=#f5f5f5;whiteSpace=wrap;html=1;fontColor=#333333;" parent="449" vertex="1">
                    <mxGeometry x="111" width="110" height="41" as="geometry">
                        <mxRectangle width="110" height="41" as="alternateBounds"/>
                    </mxGeometry>
                </mxCell>
                <mxCell id="452" value="Loại: SINGLE_CHOICE, MUTIPLE_CHOICE, TRUE_FALSE" style="connectable=0;recursiveResize=0;strokeColor=#666666;fillColor=#f5f5f5;whiteSpace=wrap;html=1;fontColor=#333333;align=center;" parent="449" vertex="1">
                    <mxGeometry x="221" width="194" height="41" as="geometry">
                        <mxRectangle width="194" height="41" as="alternateBounds"/>
                    </mxGeometry>
                </mxCell>
                <mxCell id="453" value="" style="shape=tableRow;horizontal=0;startSize=0;swimlaneHead=0;swimlaneBody=0;top=0;left=0;bottom=0;right=0;dropTarget=0;collapsible=0;recursiveResize=0;expand=0;fontStyle=1;strokeColor=#666666;fillColor=#f5f5f5;fontColor=#333333;" parent="432" vertex="1">
                    <mxGeometry y="180" width="414.75" height="31" as="geometry"/>
                </mxCell>
                <mxCell id="454" value="score" style="connectable=0;recursiveResize=0;strokeColor=#666666;fillColor=#f5f5f5;whiteSpace=wrap;html=1;fontColor=#333333;fontSize=13;fontStyle=1" parent="453" vertex="1">
                    <mxGeometry width="111" height="31" as="geometry">
                        <mxRectangle width="111" height="31" as="alternateBounds"/>
                    </mxGeometry>
                </mxCell>
                <mxCell id="455" value="INT" style="connectable=0;recursiveResize=0;strokeColor=#666666;fillColor=#f5f5f5;whiteSpace=wrap;html=1;fontColor=#333333;" parent="453" vertex="1">
                    <mxGeometry x="111" width="110" height="31" as="geometry">
                        <mxRectangle width="110" height="31" as="alternateBounds"/>
                    </mxGeometry>
                </mxCell>
                <mxCell id="456" value="Điểm số cho câu hỏi" style="connectable=0;recursiveResize=0;strokeColor=#666666;fillColor=#f5f5f5;whiteSpace=wrap;html=1;fontColor=#333333;" parent="453" vertex="1">
                    <mxGeometry x="221" width="194" height="31" as="geometry">
                        <mxRectangle width="194" height="31" as="alternateBounds"/>
                    </mxGeometry>
                </mxCell>
                <mxCell id="457" style="shape=tableRow;horizontal=0;startSize=0;swimlaneHead=0;swimlaneBody=0;top=0;left=0;bottom=0;right=0;dropTarget=0;collapsible=0;recursiveResize=0;expand=0;fontStyle=1;strokeColor=#666666;fillColor=#f5f5f5;fontColor=#333333;" parent="432" vertex="1">
                    <mxGeometry y="211" width="414.75" height="31" as="geometry"/>
                </mxCell>
                <mxCell id="458" value="order_index" style="connectable=0;recursiveResize=0;strokeColor=#666666;fillColor=#f5f5f5;whiteSpace=wrap;html=1;fontColor=#333333;fontSize=13;fontStyle=1" parent="457" vertex="1">
                    <mxGeometry width="111" height="31" as="geometry">
                        <mxRectangle width="111" height="31" as="alternateBounds"/>
                    </mxGeometry>
                </mxCell>
                <mxCell id="459" value="INT" style="connectable=0;recursiveResize=0;strokeColor=#666666;fillColor=#f5f5f5;whiteSpace=wrap;html=1;fontColor=#333333;" parent="457" vertex="1">
                    <mxGeometry x="111" width="110" height="31" as="geometry">
                        <mxRectangle width="110" height="31" as="alternateBounds"/>
                    </mxGeometry>
                </mxCell>
                <mxCell id="460" value="Thứ tự hiển thị&amp;nbsp;" style="connectable=0;recursiveResize=0;strokeColor=#666666;fillColor=#f5f5f5;whiteSpace=wrap;html=1;fontColor=#333333;" parent="457" vertex="1">
                    <mxGeometry x="221" width="194" height="31" as="geometry">
                        <mxRectangle width="194" height="31" as="alternateBounds"/>
                    </mxGeometry>
                </mxCell>
                <mxCell id="465" style="shape=tableRow;horizontal=0;startSize=0;swimlaneHead=0;swimlaneBody=0;top=0;left=0;bottom=0;right=0;dropTarget=0;collapsible=0;recursiveResize=0;expand=0;fontStyle=1;strokeColor=#666666;fillColor=#f5f5f5;fontColor=#333333;" parent="432" vertex="1">
                    <mxGeometry y="242" width="414.75" height="31" as="geometry"/>
                </mxCell>
                <mxCell id="466" value="created_at" style="connectable=0;recursiveResize=0;strokeColor=#666666;fillColor=#f5f5f5;whiteSpace=wrap;html=1;fontColor=#333333;fontSize=13;fontStyle=1" parent="465" vertex="1">
                    <mxGeometry width="111" height="31" as="geometry">
                        <mxRectangle width="111" height="31" as="alternateBounds"/>
                    </mxGeometry>
                </mxCell>
                <mxCell id="467" value="DATETIME" style="connectable=0;recursiveResize=0;strokeColor=#666666;fillColor=#f5f5f5;whiteSpace=wrap;html=1;fontColor=#333333;" parent="465" vertex="1">
                    <mxGeometry x="111" width="110" height="31" as="geometry">
                        <mxRectangle width="110" height="31" as="alternateBounds"/>
                    </mxGeometry>
                </mxCell>
                <mxCell id="468" value="Thời gian tạo" style="connectable=0;recursiveResize=0;strokeColor=#666666;fillColor=#f5f5f5;whiteSpace=wrap;html=1;fontColor=#333333;" parent="465" vertex="1">
                    <mxGeometry x="221" width="194" height="31" as="geometry">
                        <mxRectangle width="194" height="31" as="alternateBounds"/>
                    </mxGeometry>
                </mxCell>
                <mxCell id="469" style="shape=tableRow;horizontal=0;startSize=0;swimlaneHead=0;swimlaneBody=0;top=0;left=0;bottom=0;right=0;dropTarget=0;collapsible=0;recursiveResize=0;expand=0;fontStyle=1;strokeColor=#666666;fillColor=#f5f5f5;fontColor=#333333;" parent="432" vertex="1">
                    <mxGeometry y="273" width="414.75" height="31" as="geometry"/>
                </mxCell>
                <mxCell id="470" value="deleted_at" style="connectable=0;recursiveResize=0;strokeColor=#666666;fillColor=#f5f5f5;whiteSpace=wrap;html=1;fontColor=#333333;fontSize=13;fontStyle=1" parent="469" vertex="1">
                    <mxGeometry width="111" height="31" as="geometry">
                        <mxRectangle width="111" height="31" as="alternateBounds"/>
                    </mxGeometry>
                </mxCell>
                <mxCell id="471" value="DATETIME" style="connectable=0;recursiveResize=0;strokeColor=#666666;fillColor=#f5f5f5;whiteSpace=wrap;html=1;fontColor=#333333;" parent="469" vertex="1">
                    <mxGeometry x="111" width="110" height="31" as="geometry">
                        <mxRectangle width="110" height="31" as="alternateBounds"/>
                    </mxGeometry>
                </mxCell>
                <mxCell id="472" value="Thời gian xóa&amp;nbsp;" style="connectable=0;recursiveResize=0;strokeColor=#666666;fillColor=#f5f5f5;whiteSpace=wrap;html=1;fontColor=#333333;" parent="469" vertex="1">
                    <mxGeometry x="221" width="194" height="31" as="geometry">
                        <mxRectangle width="194" height="31" as="alternateBounds"/>
                    </mxGeometry>
                </mxCell>
                <mxCell id="473" value="6. Questions (câu hỏi)" style="text;html=1;align=left;verticalAlign=middle;resizable=0;points=[];autosize=1;strokeColor=none;fillColor=none;fontColor=#000000;fontSize=18;fontStyle=1" parent="1" vertex="1">
                    <mxGeometry x="1110.5" y="777" width="206" height="34" as="geometry"/>
                </mxCell>
                <mxCell id="474" value="Assets" style="childLayout=tableLayout;recursiveResize=0;shadow=1;fillColor=#60a917;fontColor=#ffffff;strokeColor=#2D7600;" parent="1" vertex="1">
                    <mxGeometry x="1110.5" y="1164" width="414.75" height="265.25" as="geometry"/>
                </mxCell>
                <mxCell id="475" style="shape=tableRow;horizontal=0;startSize=0;swimlaneHead=0;swimlaneBody=0;top=0;left=0;bottom=0;right=0;dropTarget=0;collapsible=0;recursiveResize=0;expand=0;fontStyle=0;strokeColor=inherit;fillColor=#ffffff;" parent="474" vertex="1">
                    <mxGeometry width="414.75" height="39" as="geometry"/>
                </mxCell>
                <mxCell id="476" value="Property" style="connectable=0;recursiveResize=0;align=center;fontStyle=1;html=1;fillColor=#6d8764;fontColor=#ffffff;strokeColor=#3A5431;fontSize=14;" parent="475" vertex="1">
                    <mxGeometry width="111" height="39" as="geometry">
                        <mxRectangle width="111" height="39" as="alternateBounds"/>
                    </mxGeometry>
                </mxCell>
                <mxCell id="477" value="Data Type" style="connectable=0;recursiveResize=0;align=center;fontStyle=1;html=1;fillColor=#6d8764;fontColor=#ffffff;strokeColor=#3A5431;fontSize=14;" parent="475" vertex="1">
                    <mxGeometry x="111" width="110" height="39" as="geometry">
                        <mxRectangle width="110" height="39" as="alternateBounds"/>
                    </mxGeometry>
                </mxCell>
                <mxCell id="478" value="Description" style="connectable=0;recursiveResize=0;align=center;fontStyle=1;html=1;fillColor=#6d8764;fontColor=#ffffff;strokeColor=#3A5431;fontSize=14;" parent="475" vertex="1">
                    <mxGeometry x="221" width="194" height="39" as="geometry">
                        <mxRectangle width="194" height="39" as="alternateBounds"/>
                    </mxGeometry>
                </mxCell>
                <mxCell id="479" value="" style="shape=tableRow;horizontal=0;startSize=0;swimlaneHead=0;swimlaneBody=0;top=0;left=0;bottom=0;right=0;dropTarget=0;collapsible=0;recursiveResize=0;expand=0;fontStyle=0;strokeColor=inherit;fillColor=#ffffff;" parent="474" vertex="1">
                    <mxGeometry y="39" width="414.75" height="37" as="geometry"/>
                </mxCell>
                <mxCell id="480" value="answer_id" style="connectable=0;recursiveResize=0;strokeColor=#666666;fillColor=#f5f5f5;align=center;whiteSpace=wrap;html=1;fontColor=#333333;fontSize=13;fontStyle=1" parent="479" vertex="1">
                    <mxGeometry width="111" height="37" as="geometry">
                        <mxRectangle width="111" height="37" as="alternateBounds"/>
                    </mxGeometry>
                </mxCell>
                <mxCell id="481" value="BIGINT" style="connectable=0;recursiveResize=0;strokeColor=#666666;fillColor=#f5f5f5;align=center;whiteSpace=wrap;html=1;fontColor=#333333;" parent="479" vertex="1">
                    <mxGeometry x="111" width="110" height="37" as="geometry">
                        <mxRectangle width="110" height="37" as="alternateBounds"/>
                    </mxGeometry>
                </mxCell>
                <mxCell id="482" value="Primary Key, Auto Increment" style="connectable=0;recursiveResize=0;strokeColor=#666666;fillColor=#f5f5f5;align=center;whiteSpace=wrap;html=1;fontColor=#333333;" parent="479" vertex="1">
                    <mxGeometry x="221" width="194" height="37" as="geometry">
                        <mxRectangle width="194" height="37" as="alternateBounds"/>
                    </mxGeometry>
                </mxCell>
                <mxCell id="483" value="" style="shape=tableRow;horizontal=0;startSize=0;swimlaneHead=0;swimlaneBody=0;top=0;left=0;bottom=0;right=0;dropTarget=0;collapsible=0;recursiveResize=0;expand=0;fontStyle=1;strokeColor=#666666;fillColor=#f5f5f5;fontColor=#333333;" parent="474" vertex="1">
                    <mxGeometry y="76" width="414.75" height="30" as="geometry"/>
                </mxCell>
                <mxCell id="484" value="question_id" style="connectable=0;recursiveResize=0;strokeColor=#666666;fillColor=#f5f5f5;whiteSpace=wrap;html=1;fontColor=#333333;fontSize=13;fontStyle=1" parent="483" vertex="1">
                    <mxGeometry width="111" height="30" as="geometry">
                        <mxRectangle width="111" height="30" as="alternateBounds"/>
                    </mxGeometry>
                </mxCell>
                <mxCell id="485" value="BIGINT" style="connectable=0;recursiveResize=0;strokeColor=#666666;fillColor=#f5f5f5;whiteSpace=wrap;html=1;fontColor=#333333;" parent="483" vertex="1">
                    <mxGeometry x="111" width="110" height="30" as="geometry">
                        <mxRectangle width="110" height="30" as="alternateBounds"/>
                    </mxGeometry>
                </mxCell>
                <mxCell id="486" value="FK --&amp;gt; questions.question_id" style="connectable=0;recursiveResize=0;strokeColor=#666666;fillColor=#f5f5f5;whiteSpace=wrap;html=1;fontColor=#333333;" parent="483" vertex="1">
                    <mxGeometry x="221" width="194" height="30" as="geometry">
                        <mxRectangle width="194" height="30" as="alternateBounds"/>
                    </mxGeometry>
                </mxCell>
                <mxCell id="487" value="" style="shape=tableRow;horizontal=0;startSize=0;swimlaneHead=0;swimlaneBody=0;top=0;left=0;bottom=0;right=0;dropTarget=0;collapsible=0;recursiveResize=0;expand=0;fontStyle=0;strokeColor=#666666;fillColor=#f5f5f5;fontColor=#333333;" parent="474" vertex="1">
                    <mxGeometry y="106" width="414.75" height="33" as="geometry"/>
                </mxCell>
                <mxCell id="488" value="answer_text" style="connectable=0;recursiveResize=0;strokeColor=#666666;fillColor=#f5f5f5;fontStyle=1;align=center;whiteSpace=wrap;html=1;fontColor=#333333;fontSize=13;" parent="487" vertex="1">
                    <mxGeometry width="111" height="33" as="geometry">
                        <mxRectangle width="111" height="33" as="alternateBounds"/>
                    </mxGeometry>
                </mxCell>
                <mxCell id="489" value="TEXT" style="connectable=0;recursiveResize=0;strokeColor=#666666;fillColor=#f5f5f5;fontStyle=0;align=center;whiteSpace=wrap;html=1;fontColor=#333333;" parent="487" vertex="1">
                    <mxGeometry x="111" width="110" height="33" as="geometry">
                        <mxRectangle width="110" height="33" as="alternateBounds"/>
                    </mxGeometry>
                </mxCell>
                <mxCell id="490" value="Nội dung câu trả lời" style="connectable=0;recursiveResize=0;strokeColor=#666666;fillColor=#f5f5f5;fontStyle=0;align=center;whiteSpace=wrap;html=1;fontColor=#333333;" parent="487" vertex="1">
                    <mxGeometry x="221" width="194" height="33" as="geometry">
                        <mxRectangle width="194" height="33" as="alternateBounds"/>
                    </mxGeometry>
                </mxCell>
                <mxCell id="491" value="" style="shape=tableRow;horizontal=0;startSize=0;swimlaneHead=0;swimlaneBody=0;top=0;left=0;bottom=0;right=0;dropTarget=0;collapsible=0;recursiveResize=0;expand=0;fontStyle=1;strokeColor=#666666;fillColor=#f5f5f5;fontColor=#333333;" parent="474" vertex="1">
                    <mxGeometry y="139" width="414.75" height="33" as="geometry"/>
                </mxCell>
                <mxCell id="492" value="is_correct" style="connectable=0;recursiveResize=0;strokeColor=#666666;fillColor=#f5f5f5;whiteSpace=wrap;html=1;fontColor=#333333;fontSize=13;fontStyle=1" parent="491" vertex="1">
                    <mxGeometry width="111" height="33" as="geometry">
                        <mxRectangle width="111" height="33" as="alternateBounds"/>
                    </mxGeometry>
                </mxCell>
                <mxCell id="493" value="BOOLEAN" style="connectable=0;recursiveResize=0;strokeColor=#666666;fillColor=#f5f5f5;whiteSpace=wrap;html=1;fontColor=#333333;" parent="491" vertex="1">
                    <mxGeometry x="111" width="110" height="33" as="geometry">
                        <mxRectangle width="110" height="33" as="alternateBounds"/>
                    </mxGeometry>
                </mxCell>
                <mxCell id="494" value="Đánh dấu đáp án đúng" style="connectable=0;recursiveResize=0;strokeColor=#666666;fillColor=#f5f5f5;whiteSpace=wrap;html=1;fontColor=#333333;align=center;" parent="491" vertex="1">
                    <mxGeometry x="221" width="194" height="33" as="geometry">
                        <mxRectangle width="194" height="33" as="alternateBounds"/>
                    </mxGeometry>
                </mxCell>
                <mxCell id="499" style="shape=tableRow;horizontal=0;startSize=0;swimlaneHead=0;swimlaneBody=0;top=0;left=0;bottom=0;right=0;dropTarget=0;collapsible=0;recursiveResize=0;expand=0;fontStyle=1;strokeColor=#666666;fillColor=#f5f5f5;fontColor=#333333;" parent="474" vertex="1">
                    <mxGeometry y="172" width="414.75" height="31" as="geometry"/>
                </mxCell>
                <mxCell id="500" value="order_index" style="connectable=0;recursiveResize=0;strokeColor=#666666;fillColor=#f5f5f5;whiteSpace=wrap;html=1;fontColor=#333333;fontSize=13;fontStyle=1" parent="499" vertex="1">
                    <mxGeometry width="111" height="31" as="geometry">
                        <mxRectangle width="111" height="31" as="alternateBounds"/>
                    </mxGeometry>
                </mxCell>
                <mxCell id="501" value="INT" style="connectable=0;recursiveResize=0;strokeColor=#666666;fillColor=#f5f5f5;whiteSpace=wrap;html=1;fontColor=#333333;" parent="499" vertex="1">
                    <mxGeometry x="111" width="110" height="31" as="geometry">
                        <mxRectangle width="110" height="31" as="alternateBounds"/>
                    </mxGeometry>
                </mxCell>
                <mxCell id="502" value="Thứ tự hiển thị&amp;nbsp;" style="connectable=0;recursiveResize=0;strokeColor=#666666;fillColor=#f5f5f5;whiteSpace=wrap;html=1;fontColor=#333333;" parent="499" vertex="1">
                    <mxGeometry x="221" width="194" height="31" as="geometry">
                        <mxRectangle width="194" height="31" as="alternateBounds"/>
                    </mxGeometry>
                </mxCell>
                <mxCell id="503" style="shape=tableRow;horizontal=0;startSize=0;swimlaneHead=0;swimlaneBody=0;top=0;left=0;bottom=0;right=0;dropTarget=0;collapsible=0;recursiveResize=0;expand=0;fontStyle=1;strokeColor=#666666;fillColor=#f5f5f5;fontColor=#333333;" parent="474" vertex="1">
                    <mxGeometry y="203" width="414.75" height="31" as="geometry"/>
                </mxCell>
                <mxCell id="504" value="created_at" style="connectable=0;recursiveResize=0;strokeColor=#666666;fillColor=#f5f5f5;whiteSpace=wrap;html=1;fontColor=#333333;fontSize=13;fontStyle=1" parent="503" vertex="1">
                    <mxGeometry width="111" height="31" as="geometry">
                        <mxRectangle width="111" height="31" as="alternateBounds"/>
                    </mxGeometry>
                </mxCell>
                <mxCell id="505" value="DATETIME" style="connectable=0;recursiveResize=0;strokeColor=#666666;fillColor=#f5f5f5;whiteSpace=wrap;html=1;fontColor=#333333;" parent="503" vertex="1">
                    <mxGeometry x="111" width="110" height="31" as="geometry">
                        <mxRectangle width="110" height="31" as="alternateBounds"/>
                    </mxGeometry>
                </mxCell>
                <mxCell id="506" value="Thời gian tạo" style="connectable=0;recursiveResize=0;strokeColor=#666666;fillColor=#f5f5f5;whiteSpace=wrap;html=1;fontColor=#333333;" parent="503" vertex="1">
                    <mxGeometry x="221" width="194" height="31" as="geometry">
                        <mxRectangle width="194" height="31" as="alternateBounds"/>
                    </mxGeometry>
                </mxCell>
                <mxCell id="507" style="shape=tableRow;horizontal=0;startSize=0;swimlaneHead=0;swimlaneBody=0;top=0;left=0;bottom=0;right=0;dropTarget=0;collapsible=0;recursiveResize=0;expand=0;fontStyle=1;strokeColor=#666666;fillColor=#f5f5f5;fontColor=#333333;" parent="474" vertex="1">
                    <mxGeometry y="234" width="414.75" height="31" as="geometry"/>
                </mxCell>
                <mxCell id="508" value="deleted_at" style="connectable=0;recursiveResize=0;strokeColor=#666666;fillColor=#f5f5f5;whiteSpace=wrap;html=1;fontColor=#333333;fontSize=13;fontStyle=1" parent="507" vertex="1">
                    <mxGeometry width="111" height="31" as="geometry">
                        <mxRectangle width="111" height="31" as="alternateBounds"/>
                    </mxGeometry>
                </mxCell>
                <mxCell id="509" value="DATETIME" style="connectable=0;recursiveResize=0;strokeColor=#666666;fillColor=#f5f5f5;whiteSpace=wrap;html=1;fontColor=#333333;" parent="507" vertex="1">
                    <mxGeometry x="111" width="110" height="31" as="geometry">
                        <mxRectangle width="110" height="31" as="alternateBounds"/>
                    </mxGeometry>
                </mxCell>
                <mxCell id="510" value="Thời gian xóa&amp;nbsp;" style="connectable=0;recursiveResize=0;strokeColor=#666666;fillColor=#f5f5f5;whiteSpace=wrap;html=1;fontColor=#333333;" parent="507" vertex="1">
                    <mxGeometry x="221" width="194" height="31" as="geometry">
                        <mxRectangle width="194" height="31" as="alternateBounds"/>
                    </mxGeometry>
                </mxCell>
                <mxCell id="511" value="7. Answers (câu trả lời của câu hỏi)" style="text;html=1;align=left;verticalAlign=middle;resizable=0;points=[];autosize=1;strokeColor=none;fillColor=none;fontColor=#000000;fontSize=18;fontStyle=1" parent="1" vertex="1">
                    <mxGeometry x="1110.5" y="1130" width="320" height="34" as="geometry"/>
                </mxCell>
                <mxCell id="512" value="Assets" style="childLayout=tableLayout;recursiveResize=0;shadow=1;fillColor=#60a917;fontColor=#ffffff;strokeColor=#2D7600;" parent="1" vertex="1">
                    <mxGeometry x="642" y="1281" width="414.75" height="310.25" as="geometry"/>
                </mxCell>
                <mxCell id="513" style="shape=tableRow;horizontal=0;startSize=0;swimlaneHead=0;swimlaneBody=0;top=0;left=0;bottom=0;right=0;dropTarget=0;collapsible=0;recursiveResize=0;expand=0;fontStyle=0;strokeColor=inherit;fillColor=#ffffff;" parent="512" vertex="1">
                    <mxGeometry width="414.75" height="39" as="geometry"/>
                </mxCell>
                <mxCell id="514" value="Property" style="connectable=0;recursiveResize=0;align=center;fontStyle=1;html=1;fillColor=#6d8764;fontColor=#ffffff;strokeColor=#3A5431;fontSize=14;" parent="513" vertex="1">
                    <mxGeometry width="111" height="39" as="geometry">
                        <mxRectangle width="111" height="39" as="alternateBounds"/>
                    </mxGeometry>
                </mxCell>
                <mxCell id="515" value="Data Type" style="connectable=0;recursiveResize=0;align=center;fontStyle=1;html=1;fillColor=#6d8764;fontColor=#ffffff;strokeColor=#3A5431;fontSize=14;" parent="513" vertex="1">
                    <mxGeometry x="111" width="110" height="39" as="geometry">
                        <mxRectangle width="110" height="39" as="alternateBounds"/>
                    </mxGeometry>
                </mxCell>
                <mxCell id="516" value="Description" style="connectable=0;recursiveResize=0;align=center;fontStyle=1;html=1;fillColor=#6d8764;fontColor=#ffffff;strokeColor=#3A5431;fontSize=14;" parent="513" vertex="1">
                    <mxGeometry x="221" width="194" height="39" as="geometry">
                        <mxRectangle width="194" height="39" as="alternateBounds"/>
                    </mxGeometry>
                </mxCell>
                <mxCell id="517" value="" style="shape=tableRow;horizontal=0;startSize=0;swimlaneHead=0;swimlaneBody=0;top=0;left=0;bottom=0;right=0;dropTarget=0;collapsible=0;recursiveResize=0;expand=0;fontStyle=0;strokeColor=inherit;fillColor=#ffffff;" parent="512" vertex="1">
                    <mxGeometry y="39" width="414.75" height="37" as="geometry"/>
                </mxCell>
                <mxCell id="518" value="attempt_id" style="connectable=0;recursiveResize=0;strokeColor=#666666;fillColor=#f5f5f5;align=center;whiteSpace=wrap;html=1;fontColor=#333333;fontSize=13;fontStyle=1" parent="517" vertex="1">
                    <mxGeometry width="111" height="37" as="geometry">
                        <mxRectangle width="111" height="37" as="alternateBounds"/>
                    </mxGeometry>
                </mxCell>
                <mxCell id="519" value="BIGINT" style="connectable=0;recursiveResize=0;strokeColor=#666666;fillColor=#f5f5f5;align=center;whiteSpace=wrap;html=1;fontColor=#333333;" parent="517" vertex="1">
                    <mxGeometry x="111" width="110" height="37" as="geometry">
                        <mxRectangle width="110" height="37" as="alternateBounds"/>
                    </mxGeometry>
                </mxCell>
                <mxCell id="520" value="Primary Key, Auto Increment" style="connectable=0;recursiveResize=0;strokeColor=#666666;fillColor=#f5f5f5;align=center;whiteSpace=wrap;html=1;fontColor=#333333;" parent="517" vertex="1">
                    <mxGeometry x="221" width="194" height="37" as="geometry">
                        <mxRectangle width="194" height="37" as="alternateBounds"/>
                    </mxGeometry>
                </mxCell>
                <mxCell id="521" value="" style="shape=tableRow;horizontal=0;startSize=0;swimlaneHead=0;swimlaneBody=0;top=0;left=0;bottom=0;right=0;dropTarget=0;collapsible=0;recursiveResize=0;expand=0;fontStyle=1;strokeColor=#666666;fillColor=#f5f5f5;fontColor=#333333;" parent="512" vertex="1">
                    <mxGeometry y="76" width="414.75" height="30" as="geometry"/>
                </mxCell>
                <mxCell id="522" value="quizz_id" style="connectable=0;recursiveResize=0;strokeColor=#666666;fillColor=#f5f5f5;whiteSpace=wrap;html=1;fontColor=#333333;fontSize=13;fontStyle=1" parent="521" vertex="1">
                    <mxGeometry width="111" height="30" as="geometry">
                        <mxRectangle width="111" height="30" as="alternateBounds"/>
                    </mxGeometry>
                </mxCell>
                <mxCell id="523" value="BIGINT" style="connectable=0;recursiveResize=0;strokeColor=#666666;fillColor=#f5f5f5;whiteSpace=wrap;html=1;fontColor=#333333;" parent="521" vertex="1">
                    <mxGeometry x="111" width="110" height="30" as="geometry">
                        <mxRectangle width="110" height="30" as="alternateBounds"/>
                    </mxGeometry>
                </mxCell>
                <mxCell id="524" value="FK --&amp;gt; quizzes.quizz_id" style="connectable=0;recursiveResize=0;strokeColor=#666666;fillColor=#f5f5f5;whiteSpace=wrap;html=1;fontColor=#333333;" parent="521" vertex="1">
                    <mxGeometry x="221" width="194" height="30" as="geometry">
                        <mxRectangle width="194" height="30" as="alternateBounds"/>
                    </mxGeometry>
                </mxCell>
                <mxCell id="550" style="shape=tableRow;horizontal=0;startSize=0;swimlaneHead=0;swimlaneBody=0;top=0;left=0;bottom=0;right=0;dropTarget=0;collapsible=0;recursiveResize=0;expand=0;fontStyle=1;strokeColor=#666666;fillColor=#f5f5f5;fontColor=#333333;" parent="512" vertex="1">
                    <mxGeometry y="106" width="414.75" height="30" as="geometry"/>
                </mxCell>
                <mxCell id="551" value="user_id" style="connectable=0;recursiveResize=0;strokeColor=#666666;fillColor=#f5f5f5;whiteSpace=wrap;html=1;fontColor=#333333;fontSize=13;fontStyle=1" parent="550" vertex="1">
                    <mxGeometry width="111" height="30" as="geometry">
                        <mxRectangle width="111" height="30" as="alternateBounds"/>
                    </mxGeometry>
                </mxCell>
                <mxCell id="552" value="BIGINT" style="connectable=0;recursiveResize=0;strokeColor=#666666;fillColor=#f5f5f5;whiteSpace=wrap;html=1;fontColor=#333333;" parent="550" vertex="1">
                    <mxGeometry x="111" width="110" height="30" as="geometry">
                        <mxRectangle width="110" height="30" as="alternateBounds"/>
                    </mxGeometry>
                </mxCell>
                <mxCell id="553" value="FK --&amp;gt; users.user_id" style="connectable=0;recursiveResize=0;strokeColor=#666666;fillColor=#f5f5f5;whiteSpace=wrap;html=1;fontColor=#333333;" parent="550" vertex="1">
                    <mxGeometry x="221" width="194" height="30" as="geometry">
                        <mxRectangle width="194" height="30" as="alternateBounds"/>
                    </mxGeometry>
                </mxCell>
                <mxCell id="558" style="shape=tableRow;horizontal=0;startSize=0;swimlaneHead=0;swimlaneBody=0;top=0;left=0;bottom=0;right=0;dropTarget=0;collapsible=0;recursiveResize=0;expand=0;fontStyle=1;strokeColor=#666666;fillColor=#f5f5f5;fontColor=#333333;" parent="512" vertex="1">
                    <mxGeometry y="136" width="414.75" height="30" as="geometry"/>
                </mxCell>
                <mxCell id="559" value="start_time" style="connectable=0;recursiveResize=0;strokeColor=#666666;fillColor=#f5f5f5;whiteSpace=wrap;html=1;fontColor=#333333;fontSize=13;fontStyle=1" parent="558" vertex="1">
                    <mxGeometry width="111" height="30" as="geometry">
                        <mxRectangle width="111" height="30" as="alternateBounds"/>
                    </mxGeometry>
                </mxCell>
                <mxCell id="560" value="DATETIME" style="connectable=0;recursiveResize=0;strokeColor=#666666;fillColor=#f5f5f5;whiteSpace=wrap;html=1;fontColor=#333333;" parent="558" vertex="1">
                    <mxGeometry x="111" width="110" height="30" as="geometry">
                        <mxRectangle width="110" height="30" as="alternateBounds"/>
                    </mxGeometry>
                </mxCell>
                <mxCell id="561" value="Thời gian bắt đầu" style="connectable=0;recursiveResize=0;strokeColor=#666666;fillColor=#f5f5f5;whiteSpace=wrap;html=1;fontColor=#333333;" parent="558" vertex="1">
                    <mxGeometry x="221" width="194" height="30" as="geometry">
                        <mxRectangle width="194" height="30" as="alternateBounds"/>
                    </mxGeometry>
                </mxCell>
                <mxCell id="554" style="shape=tableRow;horizontal=0;startSize=0;swimlaneHead=0;swimlaneBody=0;top=0;left=0;bottom=0;right=0;dropTarget=0;collapsible=0;recursiveResize=0;expand=0;fontStyle=1;strokeColor=#666666;fillColor=#f5f5f5;fontColor=#333333;" parent="512" vertex="1">
                    <mxGeometry y="166" width="414.75" height="30" as="geometry"/>
                </mxCell>
                <mxCell id="555" value="end_time" style="connectable=0;recursiveResize=0;strokeColor=#666666;fillColor=#f5f5f5;whiteSpace=wrap;html=1;fontColor=#333333;fontSize=13;fontStyle=1" parent="554" vertex="1">
                    <mxGeometry width="111" height="30" as="geometry">
                        <mxRectangle width="111" height="30" as="alternateBounds"/>
                    </mxGeometry>
                </mxCell>
                <mxCell id="556" value="DATETIME" style="connectable=0;recursiveResize=0;strokeColor=#666666;fillColor=#f5f5f5;whiteSpace=wrap;html=1;fontColor=#333333;" parent="554" vertex="1">
                    <mxGeometry x="111" width="110" height="30" as="geometry">
                        <mxRectangle width="110" height="30" as="alternateBounds"/>
                    </mxGeometry>
                </mxCell>
                <mxCell id="557" value="Thời gian kết thúc" style="connectable=0;recursiveResize=0;strokeColor=#666666;fillColor=#f5f5f5;whiteSpace=wrap;html=1;fontColor=#333333;" parent="554" vertex="1">
                    <mxGeometry x="221" width="194" height="30" as="geometry">
                        <mxRectangle width="194" height="30" as="alternateBounds"/>
                    </mxGeometry>
                </mxCell>
                <mxCell id="533" value="" style="shape=tableRow;horizontal=0;startSize=0;swimlaneHead=0;swimlaneBody=0;top=0;left=0;bottom=0;right=0;dropTarget=0;collapsible=0;recursiveResize=0;expand=0;fontStyle=1;strokeColor=#666666;fillColor=#f5f5f5;fontColor=#333333;" parent="512" vertex="1">
                    <mxGeometry y="196" width="414.75" height="31" as="geometry"/>
                </mxCell>
                <mxCell id="534" value="score" style="connectable=0;recursiveResize=0;strokeColor=#666666;fillColor=#f5f5f5;whiteSpace=wrap;html=1;fontColor=#333333;fontSize=13;fontStyle=1" parent="533" vertex="1">
                    <mxGeometry width="111" height="31" as="geometry">
                        <mxRectangle width="111" height="31" as="alternateBounds"/>
                    </mxGeometry>
                </mxCell>
                <mxCell id="535" value="INT" style="connectable=0;recursiveResize=0;strokeColor=#666666;fillColor=#f5f5f5;whiteSpace=wrap;html=1;fontColor=#333333;" parent="533" vertex="1">
                    <mxGeometry x="111" width="110" height="31" as="geometry">
                        <mxRectangle width="110" height="31" as="alternateBounds"/>
                    </mxGeometry>
                </mxCell>
                <mxCell id="536" value="Điểm số cho câu hỏi" style="connectable=0;recursiveResize=0;strokeColor=#666666;fillColor=#f5f5f5;whiteSpace=wrap;html=1;fontColor=#333333;" parent="533" vertex="1">
                    <mxGeometry x="221" width="194" height="31" as="geometry">
                        <mxRectangle width="194" height="31" as="alternateBounds"/>
                    </mxGeometry>
                </mxCell>
                <mxCell id="562" style="shape=tableRow;horizontal=0;startSize=0;swimlaneHead=0;swimlaneBody=0;top=0;left=0;bottom=0;right=0;dropTarget=0;collapsible=0;recursiveResize=0;expand=0;fontStyle=1;strokeColor=#666666;fillColor=#f5f5f5;fontColor=#333333;" parent="512" vertex="1">
                    <mxGeometry y="227" width="414.75" height="52" as="geometry"/>
                </mxCell>
                <mxCell id="563" value="status" style="connectable=0;recursiveResize=0;strokeColor=#666666;fillColor=#f5f5f5;whiteSpace=wrap;html=1;fontColor=#333333;fontSize=13;fontStyle=1" parent="562" vertex="1">
                    <mxGeometry width="111" height="52" as="geometry">
                        <mxRectangle width="111" height="52" as="alternateBounds"/>
                    </mxGeometry>
                </mxCell>
                <mxCell id="564" value="VARCHAR(20)" style="connectable=0;recursiveResize=0;strokeColor=#666666;fillColor=#f5f5f5;whiteSpace=wrap;html=1;fontColor=#333333;" parent="562" vertex="1">
                    <mxGeometry x="111" width="110" height="52" as="geometry">
                        <mxRectangle width="110" height="52" as="alternateBounds"/>
                    </mxGeometry>
                </mxCell>
                <mxCell id="565" value="Trạng thái: IN_PROGRESS,COMPLETED, TIMEOUT" style="connectable=0;recursiveResize=0;strokeColor=#666666;fillColor=#f5f5f5;fontColor=#333333;spacing=2;whiteSpace=wrap;html=1;labelBorderColor=none;verticalAlign=top;" parent="562" vertex="1">
                    <mxGeometry x="221" width="194" height="52" as="geometry">
                        <mxRectangle width="194" height="52" as="alternateBounds"/>
                    </mxGeometry>
                </mxCell>
                <mxCell id="541" style="shape=tableRow;horizontal=0;startSize=0;swimlaneHead=0;swimlaneBody=0;top=0;left=0;bottom=0;right=0;dropTarget=0;collapsible=0;recursiveResize=0;expand=0;fontStyle=1;strokeColor=#666666;fillColor=#f5f5f5;fontColor=#333333;" parent="512" vertex="1">
                    <mxGeometry y="279" width="414.75" height="31" as="geometry"/>
                </mxCell>
                <mxCell id="542" value="created_at" style="connectable=0;recursiveResize=0;strokeColor=#666666;fillColor=#f5f5f5;whiteSpace=wrap;html=1;fontColor=#333333;fontSize=13;fontStyle=1" parent="541" vertex="1">
                    <mxGeometry width="111" height="31" as="geometry">
                        <mxRectangle width="111" height="31" as="alternateBounds"/>
                    </mxGeometry>
                </mxCell>
                <mxCell id="543" value="DATETIME" style="connectable=0;recursiveResize=0;strokeColor=#666666;fillColor=#f5f5f5;whiteSpace=wrap;html=1;fontColor=#333333;" parent="541" vertex="1">
                    <mxGeometry x="111" width="110" height="31" as="geometry">
                        <mxRectangle width="110" height="31" as="alternateBounds"/>
                    </mxGeometry>
                </mxCell>
                <mxCell id="544" value="Thời gian tạo" style="connectable=0;recursiveResize=0;strokeColor=#666666;fillColor=#f5f5f5;whiteSpace=wrap;html=1;fontColor=#333333;" parent="541" vertex="1">
                    <mxGeometry x="221" width="194" height="31" as="geometry">
                        <mxRectangle width="194" height="31" as="alternateBounds"/>
                    </mxGeometry>
                </mxCell>
                <mxCell id="549" value="8. Quizz_Attempts (Lượt làm bài)" style="text;html=1;align=left;verticalAlign=middle;resizable=0;points=[];autosize=1;strokeColor=none;fillColor=none;fontColor=#000000;fontSize=18;fontStyle=1" parent="1" vertex="1">
                    <mxGeometry x="642" y="1247" width="301" height="34" as="geometry"/>
                </mxCell>
                <mxCell id="566" value="Assets" style="childLayout=tableLayout;recursiveResize=0;shadow=1;fillColor=#60a917;fontColor=#ffffff;strokeColor=#2D7600;" parent="1" vertex="1">
                    <mxGeometry x="185" y="1283" width="414.75" height="258.25" as="geometry"/>
                </mxCell>
                <mxCell id="567" style="shape=tableRow;horizontal=0;startSize=0;swimlaneHead=0;swimlaneBody=0;top=0;left=0;bottom=0;right=0;dropTarget=0;collapsible=0;recursiveResize=0;expand=0;fontStyle=0;strokeColor=inherit;fillColor=#ffffff;" parent="566" vertex="1">
                    <mxGeometry width="414.75" height="39" as="geometry"/>
                </mxCell>
                <mxCell id="568" value="Property" style="connectable=0;recursiveResize=0;align=center;fontStyle=1;html=1;fillColor=#6d8764;fontColor=#ffffff;strokeColor=#3A5431;fontSize=14;" parent="567" vertex="1">
                    <mxGeometry width="111" height="39" as="geometry">
                        <mxRectangle width="111" height="39" as="alternateBounds"/>
                    </mxGeometry>
                </mxCell>
                <mxCell id="569" value="Data Type" style="connectable=0;recursiveResize=0;align=center;fontStyle=1;html=1;fillColor=#6d8764;fontColor=#ffffff;strokeColor=#3A5431;fontSize=14;" parent="567" vertex="1">
                    <mxGeometry x="111" width="110" height="39" as="geometry">
                        <mxRectangle width="110" height="39" as="alternateBounds"/>
                    </mxGeometry>
                </mxCell>
                <mxCell id="570" value="Description" style="connectable=0;recursiveResize=0;align=center;fontStyle=1;html=1;fillColor=#6d8764;fontColor=#ffffff;strokeColor=#3A5431;fontSize=14;" parent="567" vertex="1">
                    <mxGeometry x="221" width="194" height="39" as="geometry">
                        <mxRectangle width="194" height="39" as="alternateBounds"/>
                    </mxGeometry>
                </mxCell>
                <mxCell id="571" value="" style="shape=tableRow;horizontal=0;startSize=0;swimlaneHead=0;swimlaneBody=0;top=0;left=0;bottom=0;right=0;dropTarget=0;collapsible=0;recursiveResize=0;expand=0;fontStyle=0;strokeColor=inherit;fillColor=#ffffff;" parent="566" vertex="1">
                    <mxGeometry y="39" width="414.75" height="37" as="geometry"/>
                </mxCell>
                <mxCell id="572" value="user_answer_id" style="connectable=0;recursiveResize=0;strokeColor=#666666;fillColor=#f5f5f5;align=center;whiteSpace=wrap;html=1;fontColor=#333333;fontSize=13;fontStyle=1" parent="571" vertex="1">
                    <mxGeometry width="111" height="37" as="geometry">
                        <mxRectangle width="111" height="37" as="alternateBounds"/>
                    </mxGeometry>
                </mxCell>
                <mxCell id="573" value="BIGINT" style="connectable=0;recursiveResize=0;strokeColor=#666666;fillColor=#f5f5f5;align=center;whiteSpace=wrap;html=1;fontColor=#333333;" parent="571" vertex="1">
                    <mxGeometry x="111" width="110" height="37" as="geometry">
                        <mxRectangle width="110" height="37" as="alternateBounds"/>
                    </mxGeometry>
                </mxCell>
                <mxCell id="574" value="Primary Key, Auto Increment" style="connectable=0;recursiveResize=0;strokeColor=#666666;fillColor=#f5f5f5;align=center;whiteSpace=wrap;html=1;fontColor=#333333;" parent="571" vertex="1">
                    <mxGeometry x="221" width="194" height="37" as="geometry">
                        <mxRectangle width="194" height="37" as="alternateBounds"/>
                    </mxGeometry>
                </mxCell>
                <mxCell id="575" value="" style="shape=tableRow;horizontal=0;startSize=0;swimlaneHead=0;swimlaneBody=0;top=0;left=0;bottom=0;right=0;dropTarget=0;collapsible=0;recursiveResize=0;expand=0;fontStyle=1;strokeColor=#666666;fillColor=#f5f5f5;fontColor=#333333;" parent="566" vertex="1">
                    <mxGeometry y="76" width="414.75" height="30" as="geometry"/>
                </mxCell>
                <mxCell id="576" value="attempt_id" style="connectable=0;recursiveResize=0;strokeColor=#666666;fillColor=#f5f5f5;whiteSpace=wrap;html=1;fontColor=#333333;fontSize=13;fontStyle=1" parent="575" vertex="1">
                    <mxGeometry width="111" height="30" as="geometry">
                        <mxRectangle width="111" height="30" as="alternateBounds"/>
                    </mxGeometry>
                </mxCell>
                <mxCell id="577" value="BIGINT" style="connectable=0;recursiveResize=0;strokeColor=#666666;fillColor=#f5f5f5;whiteSpace=wrap;html=1;fontColor=#333333;" parent="575" vertex="1">
                    <mxGeometry x="111" width="110" height="30" as="geometry">
                        <mxRectangle width="110" height="30" as="alternateBounds"/>
                    </mxGeometry>
                </mxCell>
                <mxCell id="578" value="FK --&amp;gt; quizz_attempts.attempt_id" style="connectable=0;recursiveResize=0;strokeColor=#666666;fillColor=#f5f5f5;whiteSpace=wrap;html=1;fontColor=#333333;" parent="575" vertex="1">
                    <mxGeometry x="221" width="194" height="30" as="geometry">
                        <mxRectangle width="194" height="30" as="alternateBounds"/>
                    </mxGeometry>
                </mxCell>
                <mxCell id="579" value="" style="shape=tableRow;horizontal=0;startSize=0;swimlaneHead=0;swimlaneBody=0;top=0;left=0;bottom=0;right=0;dropTarget=0;collapsible=0;recursiveResize=0;expand=0;fontStyle=0;strokeColor=#666666;fillColor=#f5f5f5;fontColor=#333333;" parent="566" vertex="1">
                    <mxGeometry y="106" width="414.75" height="33" as="geometry"/>
                </mxCell>
                <mxCell id="580" value="question_id" style="connectable=0;recursiveResize=0;strokeColor=#666666;fillColor=#f5f5f5;fontStyle=1;align=center;whiteSpace=wrap;html=1;fontColor=#333333;fontSize=13;" parent="579" vertex="1">
                    <mxGeometry width="111" height="33" as="geometry">
                        <mxRectangle width="111" height="33" as="alternateBounds"/>
                    </mxGeometry>
                </mxCell>
                <mxCell id="581" value="BIGINT" style="connectable=0;recursiveResize=0;strokeColor=#666666;fillColor=#f5f5f5;fontStyle=0;align=center;whiteSpace=wrap;html=1;fontColor=#333333;" parent="579" vertex="1">
                    <mxGeometry x="111" width="110" height="33" as="geometry">
                        <mxRectangle width="110" height="33" as="alternateBounds"/>
                    </mxGeometry>
                </mxCell>
                <mxCell id="582" value="FK --&amp;gt; questions.question_id" style="connectable=0;recursiveResize=0;strokeColor=#666666;fillColor=#f5f5f5;fontStyle=0;align=center;whiteSpace=wrap;html=1;fontColor=#333333;" parent="579" vertex="1">
                    <mxGeometry x="221" width="194" height="33" as="geometry">
                        <mxRectangle width="194" height="33" as="alternateBounds"/>
                    </mxGeometry>
                </mxCell>
                <mxCell id="583" value="" style="shape=tableRow;horizontal=0;startSize=0;swimlaneHead=0;swimlaneBody=0;top=0;left=0;bottom=0;right=0;dropTarget=0;collapsible=0;recursiveResize=0;expand=0;fontStyle=1;strokeColor=#666666;fillColor=#f5f5f5;fontColor=#333333;" parent="566" vertex="1">
                    <mxGeometry y="139" width="414.75" height="33" as="geometry"/>
                </mxCell>
                <mxCell id="584" value="answer_id" style="connectable=0;recursiveResize=0;strokeColor=#666666;fillColor=#f5f5f5;whiteSpace=wrap;html=1;fontColor=#333333;fontSize=13;fontStyle=1" parent="583" vertex="1">
                    <mxGeometry width="111" height="33" as="geometry">
                        <mxRectangle width="111" height="33" as="alternateBounds"/>
                    </mxGeometry>
                </mxCell>
                <mxCell id="585" value="BIGINT" style="connectable=0;recursiveResize=0;strokeColor=#666666;fillColor=#f5f5f5;whiteSpace=wrap;html=1;fontColor=#333333;" parent="583" vertex="1">
                    <mxGeometry x="111" width="110" height="33" as="geometry">
                        <mxRectangle width="110" height="33" as="alternateBounds"/>
                    </mxGeometry>
                </mxCell>
                <mxCell id="586" value="FK --&amp;gt; answers.answer_id" style="connectable=0;recursiveResize=0;strokeColor=#666666;fillColor=#f5f5f5;whiteSpace=wrap;html=1;fontColor=#333333;align=center;" parent="583" vertex="1">
                    <mxGeometry x="221" width="194" height="33" as="geometry">
                        <mxRectangle width="194" height="33" as="alternateBounds"/>
                    </mxGeometry>
                </mxCell>
                <mxCell id="587" style="shape=tableRow;horizontal=0;startSize=0;swimlaneHead=0;swimlaneBody=0;top=0;left=0;bottom=0;right=0;dropTarget=0;collapsible=0;recursiveResize=0;expand=0;fontStyle=1;strokeColor=#666666;fillColor=#f5f5f5;fontColor=#333333;" parent="566" vertex="1">
                    <mxGeometry y="172" width="414.75" height="55" as="geometry"/>
                </mxCell>
                <mxCell id="588" value="is_correct" style="connectable=0;recursiveResize=0;strokeColor=#666666;fillColor=#f5f5f5;whiteSpace=wrap;html=1;fontColor=#333333;fontSize=13;fontStyle=1" parent="587" vertex="1">
                    <mxGeometry width="111" height="55" as="geometry">
                        <mxRectangle width="111" height="55" as="alternateBounds"/>
                    </mxGeometry>
                </mxCell>
                <mxCell id="589" value="BOOLEAN" style="connectable=0;recursiveResize=0;strokeColor=#666666;fillColor=#f5f5f5;whiteSpace=wrap;html=1;fontColor=#333333;" parent="587" vertex="1">
                    <mxGeometry x="111" width="110" height="55" as="geometry">
                        <mxRectangle width="110" height="55" as="alternateBounds"/>
                    </mxGeometry>
                </mxCell>
                <mxCell id="590" value="Đánh dấu câu trả lời đúng/sai theo thời điểm user tham gia bài quizz" style="connectable=0;recursiveResize=0;strokeColor=#666666;fillColor=#f5f5f5;whiteSpace=wrap;html=1;fontColor=#333333;" parent="587" vertex="1">
                    <mxGeometry x="221" width="194" height="55" as="geometry">
                        <mxRectangle width="194" height="55" as="alternateBounds"/>
                    </mxGeometry>
                </mxCell>
                <mxCell id="591" style="shape=tableRow;horizontal=0;startSize=0;swimlaneHead=0;swimlaneBody=0;top=0;left=0;bottom=0;right=0;dropTarget=0;collapsible=0;recursiveResize=0;expand=0;fontStyle=1;strokeColor=#666666;fillColor=#f5f5f5;fontColor=#333333;" parent="566" vertex="1">
                    <mxGeometry y="227" width="414.75" height="31" as="geometry"/>
                </mxCell>
                <mxCell id="592" value="created_at" style="connectable=0;recursiveResize=0;strokeColor=#666666;fillColor=#f5f5f5;whiteSpace=wrap;html=1;fontColor=#333333;fontSize=13;fontStyle=1" parent="591" vertex="1">
                    <mxGeometry width="111" height="31" as="geometry">
                        <mxRectangle width="111" height="31" as="alternateBounds"/>
                    </mxGeometry>
                </mxCell>
                <mxCell id="593" value="DATETIME" style="connectable=0;recursiveResize=0;strokeColor=#666666;fillColor=#f5f5f5;whiteSpace=wrap;html=1;fontColor=#333333;" parent="591" vertex="1">
                    <mxGeometry x="111" width="110" height="31" as="geometry">
                        <mxRectangle width="110" height="31" as="alternateBounds"/>
                    </mxGeometry>
                </mxCell>
                <mxCell id="594" value="Thời gian trả lời" style="connectable=0;recursiveResize=0;strokeColor=#666666;fillColor=#f5f5f5;whiteSpace=wrap;html=1;fontColor=#333333;" parent="591" vertex="1">
                    <mxGeometry x="221" width="194" height="31" as="geometry">
                        <mxRectangle width="194" height="31" as="alternateBounds"/>
                    </mxGeometry>
                </mxCell>
                <mxCell id="599" value="9. User_Answers (câu trả lời của người dùng)" style="text;html=1;align=left;verticalAlign=middle;resizable=0;points=[];autosize=1;strokeColor=none;fillColor=none;fontColor=#000000;fontSize=18;fontStyle=1" parent="1" vertex="1">
                    <mxGeometry x="185" y="1249" width="410" height="34" as="geometry"/>
                </mxCell>
                <mxCell id="650" value="Assets" style="childLayout=tableLayout;recursiveResize=0;shadow=1;fillColor=#60a917;fontColor=#ffffff;strokeColor=#2D7600;" parent="1" vertex="1">
                    <mxGeometry x="1102" y="421" width="431.75" height="290.25" as="geometry"/>
                </mxCell>
                <mxCell id="651" style="shape=tableRow;horizontal=0;startSize=0;swimlaneHead=0;swimlaneBody=0;top=0;left=0;bottom=0;right=0;dropTarget=0;collapsible=0;recursiveResize=0;expand=0;fontStyle=0;strokeColor=inherit;fillColor=#ffffff;" parent="650" vertex="1">
                    <mxGeometry width="431.75" height="39" as="geometry"/>
                </mxCell>
                <mxCell id="652" value="Property" style="connectable=0;recursiveResize=0;align=center;fontStyle=1;html=1;fillColor=#6d8764;fontColor=#ffffff;strokeColor=#3A5431;fontSize=14;" parent="651" vertex="1">
                    <mxGeometry width="147" height="39" as="geometry">
                        <mxRectangle width="147" height="39" as="alternateBounds"/>
                    </mxGeometry>
                </mxCell>
                <mxCell id="653" value="Data Type" style="connectable=0;recursiveResize=0;align=center;fontStyle=1;html=1;fillColor=#6d8764;fontColor=#ffffff;strokeColor=#3A5431;fontSize=14;" parent="651" vertex="1">
                    <mxGeometry x="147" width="96" height="39" as="geometry">
                        <mxRectangle width="96" height="39" as="alternateBounds"/>
                    </mxGeometry>
                </mxCell>
                <mxCell id="654" value="Description" style="connectable=0;recursiveResize=0;align=center;fontStyle=1;html=1;fillColor=#6d8764;fontColor=#ffffff;strokeColor=#3A5431;fontSize=14;" parent="651" vertex="1">
                    <mxGeometry x="243" width="189" height="39" as="geometry">
                        <mxRectangle width="189" height="39" as="alternateBounds"/>
                    </mxGeometry>
                </mxCell>
                <mxCell id="655" value="" style="shape=tableRow;horizontal=0;startSize=0;swimlaneHead=0;swimlaneBody=0;top=0;left=0;bottom=0;right=0;dropTarget=0;collapsible=0;recursiveResize=0;expand=0;fontStyle=0;strokeColor=inherit;fillColor=#ffffff;" parent="650" vertex="1">
                    <mxGeometry y="39" width="431.75" height="37" as="geometry"/>
                </mxCell>
                <mxCell id="656" value="ranking_id" style="connectable=0;recursiveResize=0;strokeColor=#666666;fillColor=#f5f5f5;align=center;whiteSpace=wrap;html=1;fontColor=#333333;fontSize=13;fontStyle=1" parent="655" vertex="1">
                    <mxGeometry width="147" height="37" as="geometry">
                        <mxRectangle width="147" height="37" as="alternateBounds"/>
                    </mxGeometry>
                </mxCell>
                <mxCell id="657" value="BIGINT" style="connectable=0;recursiveResize=0;strokeColor=#666666;fillColor=#f5f5f5;align=center;whiteSpace=wrap;html=1;fontColor=#333333;" parent="655" vertex="1">
                    <mxGeometry x="147" width="96" height="37" as="geometry">
                        <mxRectangle width="96" height="37" as="alternateBounds"/>
                    </mxGeometry>
                </mxCell>
                <mxCell id="658" value="Primary Key, Auto Increment" style="connectable=0;recursiveResize=0;strokeColor=#666666;fillColor=#f5f5f5;align=center;whiteSpace=wrap;html=1;fontColor=#333333;" parent="655" vertex="1">
                    <mxGeometry x="243" width="189" height="37" as="geometry">
                        <mxRectangle width="189" height="37" as="alternateBounds"/>
                    </mxGeometry>
                </mxCell>
                <mxCell id="659" style="shape=tableRow;horizontal=0;startSize=0;swimlaneHead=0;swimlaneBody=0;top=0;left=0;bottom=0;right=0;dropTarget=0;collapsible=0;recursiveResize=0;expand=0;fontStyle=1;strokeColor=#666666;fillColor=#f5f5f5;fontColor=#333333;" parent="650" vertex="1">
                    <mxGeometry y="76" width="431.75" height="30" as="geometry"/>
                </mxCell>
                <mxCell id="660" value="user_id" style="connectable=0;recursiveResize=0;strokeColor=#666666;fillColor=#f5f5f5;whiteSpace=wrap;html=1;fontColor=#333333;fontSize=13;fontStyle=1" parent="659" vertex="1">
                    <mxGeometry width="147" height="30" as="geometry">
                        <mxRectangle width="147" height="30" as="alternateBounds"/>
                    </mxGeometry>
                </mxCell>
                <mxCell id="661" value="BIGINT" style="connectable=0;recursiveResize=0;strokeColor=#666666;fillColor=#f5f5f5;whiteSpace=wrap;html=1;fontColor=#333333;" parent="659" vertex="1">
                    <mxGeometry x="147" width="96" height="30" as="geometry">
                        <mxRectangle width="96" height="30" as="alternateBounds"/>
                    </mxGeometry>
                </mxCell>
                <mxCell id="662" value="FK --&amp;gt; users.user_id" style="connectable=0;recursiveResize=0;strokeColor=#666666;fillColor=#f5f5f5;whiteSpace=wrap;html=1;fontColor=#333333;" parent="659" vertex="1">
                    <mxGeometry x="243" width="189" height="30" as="geometry">
                        <mxRectangle width="189" height="30" as="alternateBounds"/>
                    </mxGeometry>
                </mxCell>
                <mxCell id="663" style="shape=tableRow;horizontal=0;startSize=0;swimlaneHead=0;swimlaneBody=0;top=0;left=0;bottom=0;right=0;dropTarget=0;collapsible=0;recursiveResize=0;expand=0;fontStyle=1;strokeColor=#666666;fillColor=#f5f5f5;fontColor=#333333;" parent="650" vertex="1">
                    <mxGeometry y="106" width="431.75" height="30" as="geometry"/>
                </mxCell>
                <mxCell id="664" value="total_score" style="connectable=0;recursiveResize=0;strokeColor=#666666;fillColor=#f5f5f5;whiteSpace=wrap;html=1;fontColor=#333333;fontSize=13;fontStyle=1" parent="663" vertex="1">
                    <mxGeometry width="147" height="30" as="geometry">
                        <mxRectangle width="147" height="30" as="alternateBounds"/>
                    </mxGeometry>
                </mxCell>
                <mxCell id="665" value="INT" style="connectable=0;recursiveResize=0;strokeColor=#666666;fillColor=#f5f5f5;whiteSpace=wrap;html=1;fontColor=#333333;" parent="663" vertex="1">
                    <mxGeometry x="147" width="96" height="30" as="geometry">
                        <mxRectangle width="96" height="30" as="alternateBounds"/>
                    </mxGeometry>
                </mxCell>
                <mxCell id="666" value="Tổng điểm tích lũy" style="connectable=0;recursiveResize=0;strokeColor=#666666;fillColor=#f5f5f5;whiteSpace=wrap;html=1;fontColor=#333333;" parent="663" vertex="1">
                    <mxGeometry x="243" width="189" height="30" as="geometry">
                        <mxRectangle width="189" height="30" as="alternateBounds"/>
                    </mxGeometry>
                </mxCell>
                <mxCell id="667" style="shape=tableRow;horizontal=0;startSize=0;swimlaneHead=0;swimlaneBody=0;top=0;left=0;bottom=0;right=0;dropTarget=0;collapsible=0;recursiveResize=0;expand=0;fontStyle=1;strokeColor=#666666;fillColor=#f5f5f5;fontColor=#333333;" parent="650" vertex="1">
                    <mxGeometry y="136" width="431.75" height="30" as="geometry"/>
                </mxCell>
                <mxCell id="668" value="quizzes_completed" style="connectable=0;recursiveResize=0;strokeColor=#666666;fillColor=#f5f5f5;whiteSpace=wrap;html=1;fontColor=#333333;fontSize=13;fontStyle=1" parent="667" vertex="1">
                    <mxGeometry width="147" height="30" as="geometry">
                        <mxRectangle width="147" height="30" as="alternateBounds"/>
                    </mxGeometry>
                </mxCell>
                <mxCell id="669" value="INT" style="connectable=0;recursiveResize=0;strokeColor=#666666;fillColor=#f5f5f5;whiteSpace=wrap;html=1;fontColor=#333333;" parent="667" vertex="1">
                    <mxGeometry x="147" width="96" height="30" as="geometry">
                        <mxRectangle width="96" height="30" as="alternateBounds"/>
                    </mxGeometry>
                </mxCell>
                <mxCell id="670" value="Số bộ câu hỏi đã hoàn thành" style="connectable=0;recursiveResize=0;strokeColor=#666666;fillColor=#f5f5f5;whiteSpace=wrap;html=1;fontColor=#333333;" parent="667" vertex="1">
                    <mxGeometry x="243" width="189" height="30" as="geometry">
                        <mxRectangle width="189" height="30" as="alternateBounds"/>
                    </mxGeometry>
                </mxCell>
                <mxCell id="671" value="" style="shape=tableRow;horizontal=0;startSize=0;swimlaneHead=0;swimlaneBody=0;top=0;left=0;bottom=0;right=0;dropTarget=0;collapsible=0;recursiveResize=0;expand=0;fontStyle=1;strokeColor=#666666;fillColor=#f5f5f5;fontColor=#333333;" parent="650" vertex="1">
                    <mxGeometry y="166" width="431.75" height="31" as="geometry"/>
                </mxCell>
                <mxCell id="672" value="correct_answers" style="connectable=0;recursiveResize=0;strokeColor=#666666;fillColor=#f5f5f5;whiteSpace=wrap;html=1;fontColor=#333333;fontSize=13;fontStyle=1" parent="671" vertex="1">
                    <mxGeometry width="147" height="31" as="geometry">
                        <mxRectangle width="147" height="31" as="alternateBounds"/>
                    </mxGeometry>
                </mxCell>
                <mxCell id="673" value="INT" style="connectable=0;recursiveResize=0;strokeColor=#666666;fillColor=#f5f5f5;whiteSpace=wrap;html=1;fontColor=#333333;" parent="671" vertex="1">
                    <mxGeometry x="147" width="96" height="31" as="geometry">
                        <mxRectangle width="96" height="31" as="alternateBounds"/>
                    </mxGeometry>
                </mxCell>
                <mxCell id="674" value="Số câu trả lời đúng" style="connectable=0;recursiveResize=0;strokeColor=#666666;fillColor=#f5f5f5;whiteSpace=wrap;html=1;fontColor=#333333;" parent="671" vertex="1">
                    <mxGeometry x="243" width="189" height="31" as="geometry">
                        <mxRectangle width="189" height="31" as="alternateBounds"/>
                    </mxGeometry>
                </mxCell>
                <mxCell id="675" style="shape=tableRow;horizontal=0;startSize=0;swimlaneHead=0;swimlaneBody=0;top=0;left=0;bottom=0;right=0;dropTarget=0;collapsible=0;recursiveResize=0;expand=0;fontStyle=1;strokeColor=#666666;fillColor=#f5f5f5;fontColor=#333333;" parent="650" vertex="1">
                    <mxGeometry y="197" width="431.75" height="31" as="geometry"/>
                </mxCell>
                <mxCell id="676" value="rank_position" style="connectable=0;recursiveResize=0;strokeColor=#666666;fillColor=#f5f5f5;whiteSpace=wrap;html=1;fontColor=#333333;fontSize=13;fontStyle=1" parent="675" vertex="1">
                    <mxGeometry width="147" height="31" as="geometry">
                        <mxRectangle width="147" height="31" as="alternateBounds"/>
                    </mxGeometry>
                </mxCell>
                <mxCell id="677" value="INT" style="connectable=0;recursiveResize=0;strokeColor=#666666;fillColor=#f5f5f5;whiteSpace=wrap;html=1;fontColor=#333333;" parent="675" vertex="1">
                    <mxGeometry x="147" width="96" height="31" as="geometry">
                        <mxRectangle width="96" height="31" as="alternateBounds"/>
                    </mxGeometry>
                </mxCell>
                <mxCell id="678" value="Vị trí xếp hạng hiện tại" style="connectable=0;recursiveResize=0;strokeColor=#666666;fillColor=#f5f5f5;whiteSpace=wrap;html=1;fontColor=#333333;" parent="675" vertex="1">
                    <mxGeometry x="243" width="189" height="31" as="geometry">
                        <mxRectangle width="189" height="31" as="alternateBounds"/>
                    </mxGeometry>
                </mxCell>
                <mxCell id="679" style="shape=tableRow;horizontal=0;startSize=0;swimlaneHead=0;swimlaneBody=0;top=0;left=0;bottom=0;right=0;dropTarget=0;collapsible=0;recursiveResize=0;expand=0;fontStyle=1;strokeColor=#666666;fillColor=#f5f5f5;fontColor=#333333;" parent="650" vertex="1">
                    <mxGeometry y="228" width="431.75" height="31" as="geometry"/>
                </mxCell>
                <mxCell id="680" value="updated_at" style="connectable=0;recursiveResize=0;strokeColor=#666666;fillColor=#f5f5f5;whiteSpace=wrap;html=1;fontColor=#333333;fontSize=13;fontStyle=1" parent="679" vertex="1">
                    <mxGeometry width="147" height="31" as="geometry">
                        <mxRectangle width="147" height="31" as="alternateBounds"/>
                    </mxGeometry>
                </mxCell>
                <mxCell id="681" value="DATETIME" style="connectable=0;recursiveResize=0;strokeColor=#666666;fillColor=#f5f5f5;whiteSpace=wrap;html=1;fontColor=#333333;" parent="679" vertex="1">
                    <mxGeometry x="147" width="96" height="31" as="geometry">
                        <mxRectangle width="96" height="31" as="alternateBounds"/>
                    </mxGeometry>
                </mxCell>
                <mxCell id="682" value="Thời gian cập nhật" style="connectable=0;recursiveResize=0;strokeColor=#666666;fillColor=#f5f5f5;whiteSpace=wrap;html=1;fontColor=#333333;" parent="679" vertex="1">
                    <mxGeometry x="243" width="189" height="31" as="geometry">
                        <mxRectangle width="189" height="31" as="alternateBounds"/>
                    </mxGeometry>
                </mxCell>
                <mxCell id="683" style="shape=tableRow;horizontal=0;startSize=0;swimlaneHead=0;swimlaneBody=0;top=0;left=0;bottom=0;right=0;dropTarget=0;collapsible=0;recursiveResize=0;expand=0;fontStyle=1;strokeColor=#666666;fillColor=#f5f5f5;fontColor=#333333;" parent="650" vertex="1">
                    <mxGeometry y="259" width="431.75" height="31" as="geometry"/>
                </mxCell>
                <mxCell id="684" value="created_at" style="connectable=0;recursiveResize=0;strokeColor=#666666;fillColor=#f5f5f5;whiteSpace=wrap;html=1;fontColor=#333333;fontSize=13;fontStyle=1" parent="683" vertex="1">
                    <mxGeometry width="147" height="31" as="geometry">
                        <mxRectangle width="147" height="31" as="alternateBounds"/>
                    </mxGeometry>
                </mxCell>
                <mxCell id="685" value="DATETIME" style="connectable=0;recursiveResize=0;strokeColor=#666666;fillColor=#f5f5f5;whiteSpace=wrap;html=1;fontColor=#333333;" parent="683" vertex="1">
                    <mxGeometry x="147" width="96" height="31" as="geometry">
                        <mxRectangle width="96" height="31" as="alternateBounds"/>
                    </mxGeometry>
                </mxCell>
                <mxCell id="686" value="Thời gian tạo" style="connectable=0;recursiveResize=0;strokeColor=#666666;fillColor=#f5f5f5;whiteSpace=wrap;html=1;fontColor=#333333;" parent="683" vertex="1">
                    <mxGeometry x="243" width="189" height="31" as="geometry">
                        <mxRectangle width="189" height="31" as="alternateBounds"/>
                    </mxGeometry>
                </mxCell>
                <mxCell id="687" value="3. Rankings (bảng xếp hạng)" style="text;html=1;align=left;verticalAlign=middle;resizable=0;points=[];autosize=1;strokeColor=none;fillColor=none;fontColor=#000000;fontSize=18;fontStyle=1" parent="1" vertex="1">
                    <mxGeometry x="1102" y="387" width="263" height="34" as="geometry"/>
                </mxCell>
            </root>
        </mxGraphModel>
    </diagram>
</mxfile>